<?xml version="1.0" encoding="utf-8"?>
<!-- Generator: Adobe Illustrator 18.1.0, SVG Export Plug-In . SVG Version: 6.00 Build 0)  -->
<svg version="1.1" id="Layer_1" xmlns="http://www.w3.org/2000/svg" xmlns:xlink="http://www.w3.org/1999/xlink" x="0px" y="0px"
	 viewBox="9.9 0 72.1 72" enable-background="new 9.9 0 72.1 72" xml:space="preserve">
<g id="Layer_2">
</g>
<g id="Layer_1_1_">
	<path fill="#FFFFFF" d="M46,0c19.9,0,36.1,16.1,36.1,36.1S65.8,72,46,72S9.9,55.9,9.9,36.1S26.1,0,46,0"/>
	<g>
		<path fill="#CA2027" d="M46.1,9.2c-14.8,0-26.8,12-26.8,26.8c0,11,6.6,20.4,16,24.5c-0.1-1.9,0-4.1,0.5-6.1
			c0.5-2.2,3.4-14.6,3.4-14.6s-0.9-1.7-0.9-4.2c0-4,2.3-6.9,5.2-6.9c2.4,0,3.6,1.8,3.6,4c0,2.4-1.6,6.1-2.4,9.5
			c-0.7,2.8,1.4,5.2,4.2,5.2c5.1,0,8.5-6.5,8.5-14.2c0-5.9-4-10.3-11.1-10.3c-8.1,0-13.2,6.1-13.2,12.8c0,2.3,0.7,4,1.8,5.3
			c0.5,0.6,0.6,0.8,0.4,1.5c-0.1,0.5-0.4,1.7-0.5,2.1c-0.2,0.7-0.7,0.9-1.3,0.7c-3.7-1.5-5.5-5.6-5.5-10.2c0-7.6,6.4-16.7,19.1-16.7
			c10.2,0,16.9,7.4,16.9,15.3c0,10.5-5.8,18.3-14.4,18.3c-2.9,0-5.6-1.6-6.5-3.3c0,0-1.6,6.2-1.9,7.4c-0.6,2.1-1.7,4.1-2.7,5.7
			c2.4,0.7,5,1.1,7.6,1.1c14.8,0,26.8-12,26.8-26.8C72.9,21.2,60.9,9.2,46.1,9.2z"/>
	</g>
</g>
</svg>
