<?xml version="1.0" encoding="utf-8"?>
<!-- Generator: Adobe Illustrator 18.1.0, SVG Export Plug-In . SVG Version: 6.00 Build 0)  -->
<svg version="1.1" xmlns="http://www.w3.org/2000/svg" xmlns:xlink="http://www.w3.org/1999/xlink" x="0px" y="0px"
	 viewBox="0 324 793.3 792" enable-background="new 0 324 793.3 792" xml:space="preserve">
<g id="Layer_2">
</g>
<g id="Layer_1">
	<path fill="#FFFFFF" d="M396.6,324c219.1,0,396.6,177.5,396.6,396.6S614.5,1116,396.6,1116S0,938.5,0,720.6S177.5,324,396.6,324"/>
	<g>
		<path fill="#808285" d="M397.9,425c-162.6,0-294.5,131.8-294.5,294.5c0,120.6,72.5,224.2,176.3,269.7c-0.8-20.6-0.1-45.2,5.1-67.6
			c5.7-23.9,37.9-160.5,37.9-160.5s-9.4-18.8-9.4-46.6c0-43.6,25.3-76.2,56.8-76.2c26.8,0,39.7,20.1,39.7,44.2
			c0,26.9-17.2,67.2-26,104.5c-7.4,31.2,15.7,56.7,46.5,56.7c55.8,0,93.4-71.7,93.4-156.6c0-64.5-43.5-112.8-122.5-112.8
			c-89.3,0-145,66.6-145,141c0,25.7,7.6,43.7,19.4,57.8c5.4,6.4,6.2,9,4.2,16.4c-1.4,5.4-4.7,18.5-6,23.6c-2,7.5-8,10.1-14.7,7.4
			c-41.1-16.8-60.3-61.9-60.3-112.5c0-83.7,70.6-184,210.5-184c112.4,0,186.4,81.4,186.4,168.7c0,115.5-64.2,201.8-158.9,201.8
			c-31.8,0-61.7-17.2-71.9-36.7c0,0-17.1,67.8-20.7,81c-6.2,22.7-18.5,45.4-29.6,63.1c26.5,7.8,54.5,12.1,83.5,12.1
			c162.6,0,294.5-131.8,294.5-294.5C692.4,556.8,560.6,425,397.9,425z"/>
	</g>
</g>
</svg>
