<?xml version="1.0" encoding="utf-8"?>
<!-- Generator: Adobe Illustrator 18.1.0, SVG Export Plug-In . SVG Version: 6.00 Build 0)  -->
<svg version="1.1" id="Layer_1" xmlns="http://www.w3.org/2000/svg" xmlns:xlink="http://www.w3.org/1999/xlink" x="0px" y="0px"
	 viewBox="108 0 396.6 396.6" enable-background="new 108 0 396.6 396.6" xml:space="preserve">
<circle fill="#FFFFFF" cx="306.3" cy="198.3" r="198.3"/>
<path fill="#808285" d="M216.8,350.1L216.8,350.1c-6.4-0.1-11.6-5.3-11.6-11.8l0.5-53.3c0.1-6.4,5.3-11.6,11.8-11.6h0
	c6.4,0.1,11.6,5.3,11.6,11.8l-0.5,53.3C228.5,345,223.3,350.2,216.8,350.1z"/>
<path fill="#808285" d="M248.5,350.1L248.5,350.1c-6.4-0.1-11.6-5.3-11.6-11.8l0.5-53.3c0.1-6.4,5.3-11.6,11.8-11.6h0
	c6.4,0.1,11.6,5.3,11.6,11.8l-0.5,53.3C260.3,345,255,350.2,248.5,350.1z"/>
<path fill="#808285" d="M359.6,350l-8.4-0.1c-6.4-0.1-11.6-5.3-11.6-11.8l1-111.7c0.1-6.4,5.3-11.6,11.8-11.6l8.4,0.1
	c6.4,0.1,11.6,5.3,11.6,11.8l-1,111.7C371.4,344.8,366.1,350,359.6,350z"/>
<path fill="#808285" d="M408.9,349.6l-7.8-0.1c-6.4-0.1-11.6-5.3-11.6-11.8l1-111.7c0.1-6.4,5.3-11.6,11.8-11.6l7.8,0.1
	c6.4,0.1,11.6,5.3,11.6,11.8l-1,111.7C420.7,344.5,415.4,349.7,408.9,349.6z"/>
<polygon fill="#FFFFFF" stroke="#808285" stroke-width="3" stroke-miterlimit="10" points="284.2,287.8 183,287.8 203.5,166 
	264.5,166 "/>
<circle fill="#808285" cx="233.8" cy="87.8" r="36.8"/>
<circle fill="#808285" cx="379" cy="70.6" r="36.8"/>
<polygon fill="none" stroke="#808285" stroke-width="3" stroke-miterlimit="10" points="299.4,161.1 167.7,161.1 199.6,82.8 
	268.6,82.8 "/>
<path fill="#808285" d="M271.4,170.7h-74c-5.2,0-9.4-4.2-9.4-9.4v-20.7c0-5.2,4.2-9.4,9.4-9.4h74c5.2,0,9.4,4.2,9.4,9.4v20.7
	C280.9,166.5,276.6,170.7,271.4,170.7z"/>
<path fill="#808285" d="M161.7,198.3L161.7,198.3c-5.4-3.5-6.9-10.8-3.4-16.2l29.1-44.6c3.5-5.4,10.8-6.9,16.2-3.4h0
	c5.4,3.5,6.9,10.8,3.4,16.2l-29.1,44.6C174.3,200.3,167.1,201.8,161.7,198.3z"/>
<path fill="#808285" d="M306.9,198.2L306.9,198.2c5.4-3.5,6.9-10.8,3.4-16.2l-29.1-44.6c-3.5-5.4-10.8-6.9-16.2-3.4l0,0
	c-5.4,3.5-6.9,10.8-3.4,16.2l29.1,44.6C294.3,200.2,301.5,201.7,306.9,198.2z"/>
<path fill="#808285" d="M417.8,151.9h-74c-5.2,0-9.4-4.2-9.4-9.4v-20.7c0-5.2,4.2-9.4,9.4-9.4h74c5.2,0,9.4,4.2,9.4,9.4v20.7
	C427.2,147.7,423,151.9,417.8,151.9z"/>
<path fill="#808285" d="M295.8,198.2L295.8,198.2c-5.4-3.5-6.9-10.8-3.4-16.2l41.3-63.4c3.5-5.4,10.8-6.9,16.2-3.4l0,0
	c5.4,3.5,6.9,10.8,3.4,16.2l-41.3,63.4C308.4,200.2,301.2,201.8,295.8,198.2z"/>
<path fill="#808285" d="M465.1,197.6L465.1,197.6c5.4-3.5,6.9-10.8,3.4-16.2l-41-62.9c-3.5-5.4-10.8-6.9-16.2-3.4l0,0
	c-5.4,3.5-6.9,10.8-3.4,16.2l41,62.9C452.5,199.6,459.7,201.1,465.1,197.6z"/>
<circle fill="#FFFFFF" stroke="#808285" stroke-width="3" stroke-miterlimit="10" cx="252.6" cy="166.9" r="18.6"/>
<circle fill="#FFFFFF" stroke="#808285" stroke-width="3" stroke-miterlimit="10" cx="214.9" cy="166.9" r="18.6"/>
<rect x="340.7" y="124.3" fill="#808285" width="81" height="115.9"/>
<polygon fill="#FFFFFF" points="394.3,154 365.3,154 355.3,137 355.3,115.7 404.3,115.7 404.3,137 "/>
<polygon fill="#808285" points="383.1,123.3 376.6,123.3 374.3,119.5 374.3,114.7 385.4,114.7 385.4,119.5 "/>
<polygon fill="#808285" points="385.7,157 374,157 376.6,123.3 383,123.3 "/>
</svg>
