<?xml version="1.0" encoding="utf-8"?>
<!-- Generator: Adobe Illustrator 18.1.0, SVG Export Plug-In . SVG Version: 6.00 Build 0)  -->
<svg version="1.1" id="Layer_1" xmlns="http://www.w3.org/2000/svg" xmlns:xlink="http://www.w3.org/1999/xlink" x="0px" y="0px"
	 viewBox="684 0 72 72" enable-background="new 684 0 72 72" xml:space="preserve">
<circle fill="#FFFFFF" cx="720" cy="36" r="36"/>
<path fill="#00254A" d="M703.8,63.6L703.8,63.6c-1.2,0-2.1-1-2.1-2.1l0.1-9.7c0-1.2,1-2.1,2.1-2.1l0,0c1.2,0,2.1,1,2.1,2.1l-0.1,9.7
	C705.9,62.6,704.9,63.6,703.8,63.6z"/>
<path fill="#00254A" d="M709.5,63.6L709.5,63.6c-1.2,0-2.1-1-2.1-2.1l0.1-9.7c0-1.2,1-2.1,2.1-2.1l0,0c1.2,0,2.1,1,2.1,2.1l-0.1,9.7
	C711.6,62.6,710.7,63.6,709.5,63.6z"/>
<path fill="#00254A" d="M729.7,63.5l-1.5,0c-1.2,0-2.1-1-2.1-2.1l0.2-20.3c0-1.2,1-2.1,2.1-2.1l1.5,0c1.2,0,2.1,1,2.1,2.1l-0.2,20.3
	C731.8,62.6,730.9,63.5,729.7,63.5z"/>
<path fill="#00254A" d="M738.6,63.5l-1.4,0c-1.2,0-2.1-1-2.1-2.1l0.2-20.3c0-1.2,1-2.1,2.1-2.1l1.4,0c1.2,0,2.1,1,2.1,2.1l-0.2,20.3
	C740.8,62.5,739.8,63.5,738.6,63.5z"/>
<polygon fill="#FFFFFF" stroke="#00254A" stroke-miterlimit="10" points="716,52.2 697.6,52.2 701.3,30.1 712.4,30.1 "/>
<circle fill="#00254A" cx="706.8" cy="15.9" r="6.7"/>
<circle fill="#00254A" cx="733.2" cy="12.8" r="6.7"/>
<polygon fill="none" stroke="#00254A" stroke-miterlimit="10" points="718.7,29.2 694.8,29.2 700.6,15 713.2,15 "/>
<path fill="#00254A" d="M713.7,31h-13.4c-0.9,0-1.7-0.8-1.7-1.7v-3.8c0-0.9,0.8-1.7,1.7-1.7h13.4c0.9,0,1.7,0.8,1.7,1.7v3.8
	C715.4,30.2,714.6,31,713.7,31z"/>
<path fill="#00254A" d="M693.7,36.4L693.7,36.4c-1-0.6-1.3-2-0.6-2.9l5.3-8.1c0.6-1,2-1.3,2.9-0.6l0,0c1,0.6,1.3,2,0.6,2.9l-5.3,8.1
	C696,36.7,694.7,37,693.7,36.4z"/>
<path fill="#00254A" d="M720.1,36L720.1,36c1-0.6,1.3-2,0.6-2.9l-5.3-8.1c-0.6-1-2-1.3-2.9-0.6l0,0c-1,0.6-1.3,2-0.6,2.9l5.3,8.1
	C717.8,36.3,719.1,36.6,720.1,36z"/>
<path fill="#00254A" d="M740.2,27.6h-13.4c-0.9,0-1.7-0.8-1.7-1.7v-3.8c0-0.9,0.8-1.7,1.7-1.7h13.4c0.9,0,1.7,0.8,1.7,1.7v3.8
	C741.9,26.8,741.2,27.6,740.2,27.6z"/>
<path fill="#00254A" d="M718.1,36L718.1,36c-1-0.6-1.3-2-0.6-2.9l7.5-11.5c0.6-1,2-1.3,2.9-0.6l0,0c1,0.6,1.3,2,0.6,2.9L721,35.4
	C720.4,36.3,719.1,36.6,718.1,36z"/>
<path fill="#00254A" d="M748.8,35.9L748.8,35.9c1-0.6,1.3-2,0.6-2.9L742,21.5c-0.6-1-2-1.3-2.9-0.6l0,0c-1,0.6-1.3,2-0.6,2.9
	l7.4,11.4C746.5,36.2,747.8,36.5,748.8,35.9z"/>
<circle fill="#FFFFFF" stroke="#00254A" stroke-miterlimit="10" cx="710.3" cy="30.3" r="3.4"/>
<circle fill="#FFFFFF" stroke="#00254A" stroke-miterlimit="10" cx="703.4" cy="30.3" r="3.4"/>
<rect x="726.2" y="22.6" fill="#00254A" width="14.7" height="21"/>
<polygon fill="#FFFFFF" points="736,28 730.7,28 728.9,24.9 728.9,21 737.8,21 737.8,24.9 "/>
<polygon fill="#00254A" points="733.9,22.4 732.8,22.4 732.3,21.7 732.3,20.8 734.4,20.8 734.4,21.7 "/>
<polygon fill="#00254A" points="734.4,28.5 732.3,28.5 732.8,22.4 733.9,22.4 "/>
<rect x="885.2" y="-45.5" fill="#E2DCCB" width="29.9" height="29.9"/>
<rect x="853.7" y="-45.5" fill="#A65D43" width="29.9" height="29.9"/>
<rect x="822" y="-45.5" fill="#00254A" width="29.9" height="29.9"/>
<rect x="885.2" y="-13.8" fill="#3D5567" width="29.9" height="29.9"/>
<rect x="853.7" y="-13.8" fill="#A17566" width="29.9" height="29.9"/>
<rect x="822" y="-13.8" fill="#86754D" width="29.9" height="29.9"/>
</svg>
