<?xml version="1.0" encoding="utf-8"?>
<!-- Generator: Adobe Illustrator 18.1.0, SVG Export Plug-In . SVG Version: 6.00 Build 0)  -->
<svg version="1.1" id="Layer_1" xmlns="http://www.w3.org/2000/svg" xmlns:xlink="http://www.w3.org/1999/xlink" x="0px" y="0px"
	 viewBox="0 0 62.9 62.9" enable-background="new 0 0 62.9 62.9" xml:space="preserve">
<path fill="#FFFFFF" d="M31.5,0c17.4,0,31.5,14.1,31.5,31.5S48.8,62.9,31.5,62.9S0,48.8,0,31.5S14.1,0,31.5,0"/>
<g>
	<path fill="#808285" d="M48.1,54H15.5c-0.8,0-1.5-0.7-1.5-1.5V11.8c0-0.8,0.7-1.5,1.5-1.5h32.5c0.8,0,1.5,0.7,1.5,1.5v40.8
		C49.5,53.4,48.9,54,48.1,54z"/>
	<rect x="19" y="16" fill="#FFFFFF" width="25" height="1.6"/>
	<rect x="19" y="23" fill="#FFFFFF" width="25" height="1.6"/>
	<rect x="19" y="30.5" fill="#FFFFFF" width="25" height="1.6"/>
	<rect x="19" y="38" fill="#FFFFFF" width="25" height="1.6"/>
	<rect x="19" y="45.5" fill="#FFFFFF" width="25" height="1.6"/>
</g>
</svg>
