<?xml version="1.0" encoding="utf-8"?>
<!-- Generator: Adobe Illustrator 18.1.0, SVG Export Plug-In . SVG Version: 6.00 Build 0)  -->
<svg version="1.1" id="Layer_1" xmlns="http://www.w3.org/2000/svg" xmlns:xlink="http://www.w3.org/1999/xlink" x="0px" y="0px"
	 viewBox="576 0 721 721" enable-background="new 576 0 721 721" xml:space="preserve">
<path fill="#FFFFFF" d="M936.5,719C736.8,719,576,558.2,576,360.5S736.8,0,936.5,0C1135.2,0,1297,160.8,1297,360.5"/>
<path fill="#FFFFFF" d="M1295,360.5c0,198.7-160.8,360.5-360.5,360.5"/>
<g>
	
		<rect x="865.7" y="200.5" transform="matrix(0.6998 0.7144 -0.7144 0.6998 540.3253 -576.0979)" fill="#00254A" width="179.8" height="308.6"/>
	
		<rect x="911.5" y="142.7" transform="matrix(0.6998 0.7144 -0.7144 0.6998 502.3057 -562.1915)" fill="#FFFFFF" width="17" height="347.5"/>
	
		<rect x="983.9" y="216.6" transform="matrix(0.6998 0.7144 -0.7144 0.6998 576.8333 -591.7201)" fill="#FFFFFF" width="17" height="347.5"/>
	
		<rect x="998.4" y="209.7" transform="matrix(0.6998 0.7144 -0.7144 0.6998 489.0959 -710.493)" fill="#00254A" width="182.8" height="34"/>
	<path fill="#00254A" d="M1134.2,275.6l-92.9-94.9c-10-10-9-26,0-35l24-24c10-10,26-9,35,0l92.9,94.9c10,10,9,26,0,35l-24,24
		C1160.2,285.6,1144.2,285.6,1134.2,275.6z"/>
	<path fill="#00254A" d="M722.8,572.2l48.9-162.8l127.8,129.8l-162.8,46.9C727.8,590.2,719.8,582.2,722.8,572.2z"/>
	
		<rect x="713.5" y="536.7" transform="matrix(0.6998 0.7144 -0.7144 0.6998 619.7911 -386.2522)" fill="#FFFFFF" width="111.8" height="15"/>
</g>
</svg>
