<?xml version="1.0" encoding="utf-8"?>
<!-- Generator: Adobe Illustrator 18.1.0, SVG Export Plug-In . SVG Version: 6.00 Build 0)  -->
<svg version="1.1" id="Layer_1" xmlns="http://www.w3.org/2000/svg" xmlns:xlink="http://www.w3.org/1999/xlink" x="0px" y="0px"
	 viewBox="0 0 62.9 62.9" enable-background="new 0 0 62.9 62.9" xml:space="preserve">
<circle fill="#FFFFFF" cx="31.5" cy="31.5" r="31.5"/>
<g>
	<path fill="#808285" d="M49.3,50.7H14.9c-1,0-1.8-0.8-1.8-1.8V32.2c0-1,0.8-1.8,1.8-1.8h34.5c1,0,1.8,0.8,1.8,1.8v16.6
		C51.2,49.9,50.4,50.7,49.3,50.7z"/>
	<path fill="#808285" d="M43.2,29H19.4c-0.6,0-1.1-0.5-1.1-1.1v-9.2c0-0.6,0.5-1.1,1.1-1.1h23.8c0.6,0,1.1,0.5,1.1,1.1v9.2
		C44.3,28.5,43.8,29,43.2,29z"/>
	<path fill="#808285" d="M37.6,15.9h-13c-0.4,0-0.8-0.3-0.8-0.8V8.9c0-0.4,0.3-0.8,0.8-0.8h13c0.4,0,0.8,0.3,0.8,0.8v6.3
		C38.4,15.6,38,15.9,37.6,15.9z"/>
	<circle fill="#FFFFFF" cx="18.6" cy="40.9" r="1.9"/>
	<circle fill="#FFFFFF" cx="25.2" cy="40.9" r="1.9"/>
	<circle fill="#FFFFFF" cx="31.5" cy="40.9" r="1.9"/>
	<circle fill="#FFFFFF" cx="31.2" cy="11.9" r="1.5"/>
	<circle fill="#FFFFFF" cx="34.8" cy="11.9" r="1.5"/>
	<circle fill="#FFFFFF" cx="27.5" cy="11.9" r="1.5"/>
	<circle fill="#FFFFFF" cx="38.2" cy="40.9" r="1.9"/>
	<circle fill="#FFFFFF" cx="44.8" cy="40.9" r="1.9"/>
</g>
</svg>
