<?xml version="1.0" encoding="utf-8"?>
<!-- Generator: Adobe Illustrator 18.1.0, SVG Export Plug-In . SVG Version: 6.00 Build 0)  -->
<svg version="1.1" id="Layer_1" xmlns="http://www.w3.org/2000/svg" xmlns:xlink="http://www.w3.org/1999/xlink" x="0px" y="0px"
	 viewBox="576 0 72.1 72.1" enable-background="new 576 0 72.1 72.1" xml:space="preserve">
<circle fill="#FFFFFF" cx="612.1" cy="36.1" r="36.1"/>
<path fill="#00254A" d="M635.4,50.9h-35.3c-1.3,0-2.3-1-2.3-2.3v-24c0-1.3,1-2.3,2.3-2.3h35.3c1.3,0,2.3,1,2.3,2.3v23.9
	C637.7,49.9,636.7,50.9,635.4,50.9z"/>
<polygon fill="#00254A" points="595.1,41.3 583.9,45.7 583.9,26.7 595.1,31 "/>
<path fill="#FFFFFF" d="M624.3,41.6H606c-0.6,0-1-0.5-1-1v-8.5c0-0.6,0.5-1,1-1h18.3c0.6,0,1,0.5,1,1v8.5
	C625.3,41.1,624.9,41.6,624.3,41.6z"/>
</svg>
