<?xml version="1.0" encoding="utf-8"?>
<!-- Generator: Adobe Illustrator 18.1.0, SVG Export Plug-In . SVG Version: 6.00 Build 0)  -->
<svg version="1.1" id="Layer_1" xmlns="http://www.w3.org/2000/svg" xmlns:xlink="http://www.w3.org/1999/xlink" x="0px" y="0px"
	 viewBox="0 0 62.9 62.9" enable-background="new 0 0 62.9 62.9" xml:space="preserve">
<path fill="#FFFFFF" d="M31.5,62.9C14.1,62.9,0,48.8,0,31.5S14.1,0,31.5,0s31.5,14.1,31.5,31.5"/>
<path fill="#FFFFFF" d="M62.9,31.5c0,17.4-14.1,31.5-31.5,31.5"/>
<g>
	
		<rect x="25.4" y="17.6" transform="matrix(0.6998 0.7144 -0.7144 0.6998 32.2008 -14.4482)" fill="#808285" width="15.7" height="27"/>
	
		<rect x="29.4" y="12.5" transform="matrix(0.6998 0.7144 -0.7144 0.6998 28.8384 -13.2085)" fill="#FFFFFF" width="1.5" height="30.4"/>
	
		<rect x="35.7" y="19" transform="matrix(0.6998 0.7144 -0.7144 0.6998 35.3851 -15.8019)" fill="#FFFFFF" width="1.5" height="30.4"/>
	<rect x="37" y="18.3" transform="matrix(0.6998 0.7144 -0.7144 0.6998 27.6321 -26.2143)" fill="#808285" width="16" height="3"/>
	<path fill="#808285" d="M48.8,24.1l-8.1-8.3c-0.9-0.9-0.8-2.3,0-3.1l2.1-2.1c0.9-0.9,2.3-0.8,3.1,0l8.1,8.3c0.9,0.9,0.8,2.3,0,3.1
		l-2.1,2.1C51.1,25,49.7,25,48.8,24.1z"/>
	<path fill="#808285" d="M12.8,50.1l4.3-14.2l11.2,11.4l-14.2,4.1C13.3,51.6,12.6,50.9,12.8,50.1z"/>
	<rect x="12" y="46.9" transform="matrix(0.6998 0.7144 -0.7144 0.6998 39.0539 2.2341)" fill="#FFFFFF" width="9.8" height="1.3"/>
</g>
</svg>
