<?xml version="1.0" encoding="utf-8"?>
<!-- Generator: Adobe Illustrator 18.1.0, SVG Export Plug-In . SVG Version: 6.00 Build 0)  -->
<svg version="1.1" id="Layer_1" xmlns="http://www.w3.org/2000/svg" xmlns:xlink="http://www.w3.org/1999/xlink" x="0px" y="0px"
	 viewBox="576 0 72.1 72.1" enable-background="new 576 0 72.1 72.1" xml:space="preserve">
<circle fill="#FFFFFF" cx="612.1" cy="36.1" r="36.1"/>
<g>
	<path fill="#00254A" d="M632.4,58h-39.4c-1.1,0-2.1-0.9-2.1-2.1V36.9c0-1.1,0.9-2.1,2.1-2.1h39.5c1.1,0,2.1,0.9,2.1,2.1v19
		C634.6,57.1,633.7,58,632.4,58z"/>
	<path fill="#00254A" d="M625.4,33.2h-27.2c-0.7,0-1.3-0.6-1.3-1.3V21.4c0-0.7,0.6-1.3,1.3-1.3h27.2c0.7,0,1.3,0.6,1.3,1.3v10.5
		C626.7,32.6,626.1,33.2,625.4,33.2z"/>
	<path fill="#00254A" d="M619,18.2h-14.9c-0.5,0-0.9-0.3-0.9-0.9v-7.1c0-0.5,0.3-0.9,0.9-0.9H619c0.5,0,0.9,0.3,0.9,0.9v7.2
		C620,17.9,619.5,18.2,619,18.2z"/>
	<circle fill="#FFFFFF" cx="597.3" cy="46.8" r="2.2"/>
	<circle fill="#FFFFFF" cx="604.8" cy="46.8" r="2.2"/>
	<circle fill="#FFFFFF" cx="612.1" cy="46.8" r="2.2"/>
	<circle fill="#FFFFFF" cx="611.7" cy="13.6" r="1.7"/>
	<circle fill="#FFFFFF" cx="615.8" cy="13.6" r="1.7"/>
	<circle fill="#FFFFFF" cx="607.5" cy="13.6" r="1.7"/>
	<circle fill="#FFFFFF" cx="619.7" cy="46.8" r="2.2"/>
	<circle fill="#FFFFFF" cx="627.3" cy="46.8" r="2.2"/>
</g>
</svg>
