<?xml version="1.0" encoding="utf-8"?>
<!-- Generator: Adobe Illustrator 18.1.0, SVG Export Plug-In . SVG Version: 6.00 Build 0)  -->
<svg version="1.1" id="Layer_1" xmlns="http://www.w3.org/2000/svg" xmlns:xlink="http://www.w3.org/1999/xlink" x="0px" y="0px"
	 viewBox="0 0 62.9 62.9" enable-background="new 0 0 62.9 62.9" xml:space="preserve">
<circle fill="#FFFFFF" cx="31.5" cy="31.5" r="31.5"/>
<path fill="#808285" d="M51.9,44.5H21.1c-1.1,0-2-0.9-2-2V21.5c0-1.1,0.9-2,2-2h30.8c1.1,0,2,0.9,2,2v20.9
	C53.9,43.6,53,44.5,51.9,44.5z"/>
<polygon fill="#808285" points="16.7,36.1 6.9,39.9 6.9,23.3 16.7,27.1 "/>
<path fill="#FFFFFF" d="M42.2,36.3h-16c-0.5,0-0.9-0.4-0.9-0.9V28c0-0.5,0.4-0.9,0.9-0.9h16c0.5,0,0.9,0.4,0.9,0.9v7.4
	C43.1,35.9,42.7,36.3,42.2,36.3z"/>
</svg>
