<?xml version="1.0" encoding="utf-8"?>
<!-- Generator: Adobe Illustrator 18.1.0, SVG Export Plug-In . SVG Version: 6.00 Build 0)  -->
<svg version="1.1" xmlns="http://www.w3.org/2000/svg" xmlns:xlink="http://www.w3.org/1999/xlink" x="0px" y="0px"
	 viewBox="0 324 793.3 792" enable-background="new 0 324 793.3 792" xml:space="preserve">
<g id="Layer_2">
</g>
<g id="Layer_1">
	<path fill="#FFFFFF" d="M396.6,324c219.1,0,396.6,177.5,396.6,396.6S614.5,1116,396.6,1116S0,938.5,0,720.6S177.5,324,396.6,324"/>
	<path fill="#808285" d="M665.2,566.4c-19.1,8.5-39.6,14.2-61.2,16.8c22-13.2,38.9-34.1,46.9-59c-20.6,12.2-43.4,21.1-67.7,25.9
		c-19.4-20.7-47.1-33.7-77.8-33.7c-58.9,0-106.6,47.7-106.6,106.6c0,8.4,0.9,16.5,2.8,24.3C313,642.8,234.5,600.4,182,535.9
		c-9.2,15.7-14.4,34-14.4,53.6c0,37,18.8,69.6,47.4,88.7c-17.5-0.6-33.9-5.3-48.3-13.3c0,0.4,0,0.9,0,1.3
		c0,51.6,36.7,94.7,85.5,104.5c-8.9,2.4-18.4,3.7-28.1,3.7c-6.9,0-13.5-0.7-20-1.9c13.6,42.3,52.9,73.1,99.5,74
		c-36.5,28.6-82.4,45.6-132.3,45.6c-8.6,0-17.1-0.5-25.4-1.5c47.2,30.2,103.2,47.9,163.3,47.9c196,0,303.2-162.4,303.2-303.2
		c0-4.6-0.1-9.2-0.3-13.8C632.8,606.5,650.9,587.7,665.2,566.4z"/>
</g>
</svg>
