<?xml version="1.0" encoding="utf-8"?>
<!-- Generator: Adobe Illustrator 18.1.0, SVG Export Plug-In . SVG Version: 6.00 Build 0)  -->
<svg version="1.1" id="Layer_1" xmlns="http://www.w3.org/2000/svg" xmlns:xlink="http://www.w3.org/1999/xlink" x="0px" y="0px"
	 viewBox="0 0 720 720" enable-background="new 0 0 720 720" xml:space="preserve">
<g>
	<circle fill="#3D5567" cx="330.8" cy="319.4" r="269.1"/>
	<circle fill="none" stroke="#86754D" stroke-width="6" stroke-miterlimit="10" cx="329.8" cy="320.7" r="233.6"/>
	<path fill="#988866" d="M331.7,253.7c-31.8-13.8-65.7,6.9-82.4,36.2c-22,38-51.9,78.9-98.4,88c0,0,13.5,49.4,94.6,79.2
		c0,0-11,18.6,8.5,25.8c0,0,16.7,2.5,19.8-14.1c0,0,21.1,5.7,43.1,3.8c-2.8,0.3-4.7-38.4-4.4-41.5c1.3-22.6,11-50.3,23.9-69.2
		c7.2-10.7,12.6-23,16-35.2c5.7-19.5,8.5-54.1-11-67.3C338,257.2,334.8,255.3,331.7,253.7z"/>
	<path fill="#00254A" d="M198.4,354.7c0,0,29.6,69.2,115.4,63.8c0,0,2.2-13.2,6.9-25.8c0,0-82.1-3.8-100.3-60.1
		C220.4,332.3,206.9,347.1,198.4,354.7z"/>
	<path fill="#AFA286" d="M245.2,457.2c0,0-2.8,8.2-2.8,8.8c-0.9,5.7,0.3,11.3,5,14.8c5.3,4.1,11.9,4.7,17.9,2.2
		c2.2-0.9,4.4-2.5,6-4.7c0.9-1.3,1.6-2.5,1.9-4.1c0-0.6,1.3-5,0.6-5C274.2,468.8,251.8,462.2,245.2,457.2z"/>
	<path fill="#86754D" d="M329.2,229.8c31.8-13.8,65.4,6.6,82.4,36.2c22,38,51.9,78.9,98.4,88c0,0-13.5,49.4-94.6,79.2
		c0,0,11,18.6-8.5,25.8c0,0-16.7,2.5-19.8-14.1c0,0-21.1,5.7-43.1,3.8c2.8,0.3,4.7-38.4,4.4-41.5c-1.3-22.6-11-50.3-23.9-69.2
		c-7.2-10.7-12.6-23-16-35.2c-5.7-19.8-8.5-54.1,11-67.3C322.6,233.3,325.7,231.4,329.2,229.8z"/>
	<path fill="#00254A" d="M462.2,330.8c0,0-29.6,69.2-115.4,63.8c0,0-2.2-13.2-6.9-25.8c0,0,82.1-3.8,100.3-60.1
		C440.2,308.4,453.7,323.2,462.2,330.8z"/>
	<path fill="#AFA286" d="M415.3,433.3c0,0,2.8,8.2,2.8,8.8c0.9,5.7-0.3,11.3-5,14.8c-5.3,4.1-11.9,4.7-17.9,2.2
		c-2.2-0.9-4.4-2.5-6-4.7c-0.9-1.3-1.6-2.5-1.9-4.1c0-0.6-1.3-5-0.6-5C386.4,444.6,409,438.3,415.3,433.3z"/>
	<path fill="#00254A" d="M333.9,231.7c1.9,1.6,3.8,2.8,5.3,4.7c3.5,3.8,3.1,7.2-0.6,11.9c-5.7,6.6-21.1,9.1-28.3,4.4
		c-1.6-0.9-3.1-2.8-4.4-4.1c0-0.3,0-0.6,0.3-0.9c-8.8,1.3-17.3,3.1-26.1,4.1c-17.3,1.6-34.9,1.6-51.9-4.1c-8.2-2.8-16-6.6-21.4-13.8
		c-7.5-10.1-7.2-20.4-2.2-31.1c5.3-11.3,14.1-19.5,24.5-25.8c10.1-6.3,20.8-6.3,31.4-0.9c13.2,6.6,23,17.3,30.8,29.2
		c6.3,9.4,11.6,19.8,17.6,29.6c0.3,0.6,0.9,1.6,1.6,2.2c5.7-4.1,12.3-4.7,18.9-4.7c0.6,0,1.6-0.3,2.2-0.6
		c9.4-9.1,18.6-18.2,27.7-27.7c6.3-6.6,11.3-14.1,15.4-22.3c2.5-5,3.8-10.4,3.5-15.7c-0.6-4.7-3.1-8.5-7.2-11.3
		c-5.7-3.8-11.9-6-18.6-3.1c-3.1,1.3-6.3,3.8-8.8,6.3c-6.6,7.5-10.1,17-12.9,26.4c-3.8,12.6-6,25.5-7.5,38.7
		c-0.3,2.5-0.6,5.3-1.9,7.9c-0.3-0.6-0.3-1.3-0.6-1.9c-1.3-9.7-2.8-19.8-3.5-29.6c-0.3-7.2,0-14.5,0.9-21.4
		c0.9-7.2,2.5-14.8,4.4-21.7c3.1-10.1,9.4-18.2,19.5-22c5.3-1.9,11.3-1.9,17-1.9c7.5-0.3,15.1,1.6,22,4.4
		c8.8,3.5,16.3,8.8,19.8,17.6c2.8,7.5,2.5,15.4-0.6,23.3c-4.7,11-12.6,19.5-21.4,27.4c-12.9,11.3-28,19.5-43.4,27.4
		C334.8,231.4,334.2,231.7,333.9,231.7z M241.8,191.8c-1.3,0.3-2.2,0.3-3.1,0.9c-5.7,2.5-9.4,6.9-11.6,12.6
		c-2.2,5.3-1.9,11,1.6,15.7c5,7.2,12.6,10.7,20.4,13.8c17.3,6.6,35.2,9.4,53.4,11.6c1.9,0.3,2.8-0.3,3.1-2.5
		c0.3-1.6,0.6-3.1,1.6-4.1c1.9-1.9,0.9-3.5-0.6-4.7c-4.4-4.7-9.1-9.1-13.5-13.8c-9.4-9.7-19.8-18.6-32.1-24.8
		C255,193.4,248.7,191.5,241.8,191.8z"/>
	<path fill="#00254A" d="M526,219.5c0,0.6,0,1.3-0.3,1.6c-6.3,11.3-13.8,21.7-24.5,29.6c-14.8,10.7-30.2,7.5-42.4-4.4
		c-7.9-7.5-14.8-16-24.2-21.7c-8.8-5.7-18.2-9.4-28.6-11.3c-8.2-1.6-16.3-1.6-24.8-1.3c1.3-0.6,2.2-1.6,3.5-1.9
		c9.7-3.1,19.8-5.3,30.2-5c16,0.6,30.8,5.3,43.1,16.3c3.8,3.5,7.5,7.2,11.3,10.4c9.7,7.9,21.1,9.4,32.7,5.3
		c7.2-2.5,13.5-7.5,18.9-13.2c1.6-1.6,2.8-3.5,4.4-5C525.7,219.5,525.7,219.5,526,219.5z"/>
	<path fill="#00254A" d="M137.1,313.2c7.5,4.7,14.8,8.2,23.3,9.4c11.9,1.6,22.6-0.9,30.5-10.4c3.8-4.4,6.6-9.4,9.4-14.5
		c7.2-13.8,17.9-23.9,32.1-29.9c10.4-4.7,21.4-7.2,32.7-6.9c2.2,0,4.7,0,6.9,0c0,0.3,0,0.6,0,0.9c-3.5,0.9-7.2,2.2-10.7,3.1
		c-9.7,2.8-18.2,8.2-26.1,14.8c-10.7,9.1-17.9,20.4-23.3,33c-3.8,8.5-8.5,16-16.7,21.1c-7.9,4.7-16.3,4.4-24.5,1.9
		c-11.3-3.5-21.1-10.1-29.6-17.9c-1.3-1.3-2.5-2.2-3.5-3.5C136.8,314.1,137.1,313.8,137.1,313.2z"/>
	<g>
		<path fill="none" d="M180.8,636.7c0,0,388,142.4,503.7-270.4"/>
		<path fill="#00254A" d="M296.5,659.3c-1.3,0-2.2-0.3-3.1-1.3c-0.9-0.6-1.6-1.9-1.9-3.1c-0.3-1.3-0.6-2.8-0.9-4.4
			c0-1.6-0.3-3.5,0-5c0-2.8,0.3-5.3,0.6-7.5c0.3-2.2,0.6-4.1,0.9-5.7c0.3-1.6,0.6-2.8,0.9-3.8c0.3-0.9,0.6-1.6,0.6-1.6
			c0.3-0.3,0.3-0.3,0.9-0.6c0.3-0.3,0.6-0.3,0.9-0.6c0.3,0,0.6-0.3,0.9-0.3c0.3,0,0.6,0,0.9,0c0.6,0,0.9,0.3,1.3,0.3
			c0.3,0.3,0.3,0.6,0.3,1.3c0,0,0,0.3-0.3,0.9c0,0.6-0.3,1.3-0.3,2.2c-0.3,0.9-0.3,2.2-0.6,3.5c-0.3,1.3-0.3,2.5-0.6,4.1
			c-0.3,1.6-0.3,2.8-0.6,4.4c0,1.6-0.3,2.8-0.3,4.4c0,1.3,0,2.2,0,3.5c0,0.9,0,1.9,0.3,2.8c0.3,0.9,0.3,1.6,0.6,1.9
			c0.3,0.3,0.6,0.6,1.3,0.6c0.6,0,0.9-0.3,1.6-0.9c0.3-0.6,0.9-1.6,1.3-2.5c0.3-0.9,0.9-2.2,1.3-3.5c0.3-1.3,0.6-2.5,0.9-3.8
			c0.3-1.3,0.6-2.5,0.9-3.8s0.6-2.2,0.6-2.8c0-0.3,0.3-0.6,0.6-1.3c0.3-0.3,0.6-0.6,1.3-0.9c0.3-0.3,0.9-0.3,1.6-0.6
			c0.6,0,0.9-0.3,1.6,0c0.3,0,0.6,0,0.6,0.3c0,0.3,0,0.6,0,0.9c0,2.5,0,5,0,7.2s0.6,4.4,0.9,6.3c0.6,1.9,0.9,3.5,1.9,4.4
			c0.6,1.3,1.6,1.6,2.5,1.9c0.6,0,1.3-0.3,1.9-0.6c0.6-0.6,1.3-0.9,1.6-1.9c0.6-0.6,0.9-1.6,1.3-2.5c0.3-0.9,0.6-1.6,0.6-2.2
			c-0.9-0.6-2.2-1.3-3.1-2.5c-0.9-0.9-1.6-2.2-2.5-3.8c-0.6-1.6-1.3-2.8-1.6-4.7c-0.3-1.6-0.6-3.1-0.3-5c0-0.9,0.3-1.9,0.3-2.8
			c0.3-0.9,0.6-1.6,0.9-2.2c0.3-0.6,0.9-1.3,1.6-1.6c0.6-0.3,1.3-0.6,2.2-0.6c1.3,0,2.2,0.3,2.8,1.3c0.6,0.6,1.6,1.6,1.9,2.8
			c0.6,1.3,0.9,2.5,0.9,4.1c0.3,1.6,0.3,3.1,0.3,5c0,1.3-0.3,2.5-0.3,4.1c0,1.6-0.6,2.8-0.9,4.1h0.6c1.3,0,2.5-0.3,3.8-1.3
			c0.9-0.9,1.9-2.2,2.8-3.5l0.3-0.9l1.6,1.3l-0.3,0.9c-0.9,1.6-2.2,3.1-3.5,4.1c-1.6,0.9-3.1,1.6-5,1.6h-0.6
			c-0.6,1.6-0.9,2.8-1.6,4.1c-0.6,1.3-1.3,2.2-2.2,3.1c-0.9,0.9-1.6,1.6-2.5,2.2c-0.9,0.6-1.9,0.6-2.8,0.6c-1.3,0-2.2-0.3-3.1-0.9
			c-0.9-0.6-1.6-1.3-2.2-1.9c-0.6-0.9-1.3-1.6-1.6-2.8c-0.3-0.9-0.6-1.9-0.9-3.1c-0.3-0.9-0.3-2.2-0.6-3.1c0-0.9-0.3-1.9-0.3-2.5
			c-0.3,0.9-0.6,1.9-0.9,2.8c-0.3,0.9-0.6,2.2-0.9,3.1c-0.3,0.9-0.9,1.9-1.3,2.8c-0.6,0.9-0.9,1.9-1.6,2.5c-0.6,0.6-1.3,1.3-2.2,1.6
			C298.4,659.3,297.4,659.6,296.5,659.3z M316.9,633.9c0,1.3,0,2.5,0.3,3.8c0.3,1.3,0.6,2.5,0.9,3.8c0.6,1.3,0.9,2.2,1.9,3.1
			c0.6,0.9,1.6,1.6,2.2,2.2c0-0.3,0-0.6,0-1.3c0-0.3,0-0.9,0-1.3c0-0.6,0-0.9,0-1.3c0-0.3,0-0.9,0-1.3c0-1.6,0-3.1,0-4.4
			c0-1.6-0.3-2.8-0.6-3.8c-0.3-1.3-0.6-2.2-1.3-2.8c-0.3-0.6-0.9-0.9-1.6-0.9c-0.3,0-0.6,0-0.9,0.3c-0.3,0.3-0.6,0.6-0.6,0.9
			c-0.3,0.3-0.3,0.9-0.3,1.3C316.9,632.6,316.9,633.2,316.9,633.9z"/>
		<path fill="#00254A" d="M345.5,655.5c0.9,0,1.9-0.3,2.8-0.9c0.9-0.6,1.9-1.3,2.8-2.5c0.9-0.9,1.9-2.5,3.1-4.1
			c0.9-1.6,2.2-3.8,3.1-6l0.3-0.9l1.9,1.3l-0.3,0.9c-1.3,3.1-2.8,5.7-4.1,7.9c-1.3,2.2-2.8,3.8-4.1,5.3c-1.3,1.3-2.8,2.5-4.1,3.1
			c-1.3,0.6-2.8,0.9-4.1,0.9c-1.9,0-3.5-0.3-4.7-0.9c-1.6-0.6-2.5-1.6-3.8-2.8c-0.9-1.3-1.9-2.8-2.5-4.4c-0.6-1.6-0.9-3.5-0.9-5.3
			c0-2.8,0.3-5.7,0.9-8.2c0.6-2.5,1.9-4.7,3.1-6.3c1.3-1.9,2.8-3.1,4.4-4.1s3.5-1.6,5.3-1.6c1.9,0,3.5,0.3,4.4,1.3
			c0.9,0.9,1.6,2.2,1.6,3.5c0,1.3-0.3,2.8-0.9,4.1c-0.6,1.3-1.9,2.5-3.1,3.8c-1.3,1.3-2.8,2.5-4.7,3.8c-1.9,1.3-3.5,2.5-5.7,3.8
			c0.3,1.6,0.6,2.8,1.3,3.8c0.6,1.3,1.3,2.2,1.9,2.8c0.6,0.9,1.6,1.6,2.5,1.9C343.3,655.2,344.3,655.5,345.5,655.5z M345.9,632.6
			c0-1.3-0.3-1.9-0.9-2.5c-0.6-0.6-1.3-0.9-2.2-0.9c-0.6,0-1.6,0.3-2.2,0.9c-0.6,0.6-1.6,1.3-2.2,2.5c-0.6,1.3-1.3,2.5-1.6,4.4
			c-0.3,1.9-0.6,3.8-0.3,6.3v0.9c0.9-0.6,1.9-1.3,3.1-2.2s2.2-1.9,3.1-2.8s1.9-2.2,2.5-3.1C345.5,634.8,345.9,633.5,345.9,632.6z"/>
		<path fill="#00254A" d="M369.1,658.7c-1.6,0.3-3.1,0-4.4-0.6c-1.3-0.6-2.5-1.3-3.5-2.5c-0.9-1.3-1.6-2.5-2.2-4.1
			c-0.6-1.6-0.9-3.1-1.3-5c-0.3-1.6-0.3-3.1,0-4.7c0-1.6,0.3-3.1,0.6-4.7c0.3-1.6,0.9-3.1,1.6-4.4c0.6-1.6,1.6-2.8,2.5-3.8
			c0.9-1.3,2.2-2.2,3.5-2.8c1.3-0.6,2.8-1.3,4.4-1.3c1.9-0.3,3.5,0,4.7,0.6c1.3,0.6,2.5,1.6,3.5,2.5c-0.6-5-0.9-9.7-0.9-13.8
			c0-4.1,0.3-7.5,0.9-10.4c0.6-2.8,1.3-5,2.5-6.6c1.3-1.6,2.2-2.5,3.8-2.5c0.6,0,0.9,0,1.6,0c0.3,0,0.9,0.3,1.3,0.6
			c0.3,0.3,0.6,0.6,0.9,1.3c0.3,0.6,0.3,1.3,0.6,2.2c0.3,1.9,0.3,3.8,0.3,6.3c0,2.5-0.3,5-0.6,7.9c-0.3,2.8-0.6,6-1.3,9.1
			s-1.3,6.6-1.9,10.1c0.3,2.8,0.6,5.3,0.9,7.5c0.3,2.2,0.6,4.1,0.9,5.3c0.3,1.6,0.6,2.5,0.9,3.5c0.3,0.9,0.6,1.6,0.9,2.2
			c0.3,0.6,0.6,0.9,0.9,0.9c0.3,0,0.6,0.3,0.9,0c0.6,0,1.3-0.3,1.9-0.9s1.3-1.6,1.9-2.8s1.3-2.5,1.9-4.4c0.6-1.6,1.3-3.8,2.2-6
			l0.3-0.9l1.9,0.9l-0.3,0.9c-1.3,3.5-2.2,6.3-3.1,8.5s-1.9,4.1-2.8,5.3s-1.6,2.5-2.5,3.1c-0.9,0.6-1.9,0.9-2.8,1.3
			c-0.9,0-1.9,0-2.5-0.3c-0.6-0.3-1.6-0.9-2.2-2.2c-0.6-0.9-1.3-2.2-1.6-3.8c-0.6-1.6-0.9-3.5-1.3-5.7c-0.6,1.9-1.6,3.8-2.2,5.7
			c-0.9,1.6-1.6,3.1-2.5,4.4s-1.9,2.2-3.1,2.8C371.6,658.4,370.4,658.7,369.1,658.7z M371.3,626.6c-1.6,0.3-2.8,0.9-3.8,1.9
			c-0.9,0.9-1.9,2.5-2.5,3.8c-0.6,1.3-0.9,3.1-0.9,5s0,3.8,0,5.7c0.3,1.6,0.6,2.8,0.9,4.4c0.3,1.3,0.9,2.5,1.6,3.5
			c0.6,0.9,1.3,1.9,2.2,2.2c0.9,0.3,1.6,0.6,2.5,0.6s1.6-0.3,2.5-0.9c0.6-0.6,1.6-1.3,2.2-2.5c0.6-0.9,1.3-2.5,2.2-4.1
			c0.6-1.6,1.3-3.8,1.9-6c-0.3-1.3-0.3-2.8-0.6-4.1c-0.3-1.6-0.3-3.1-0.6-4.7c-0.9-1.6-1.9-3.1-3.1-3.8
			C374.1,626.6,372.9,626.3,371.3,626.6z M385.8,600.5c0-1.3-0.3-2.2-0.6-2.5c-0.3-0.3-0.6-0.6-0.9-0.6c-0.6,0-1.3,0.6-1.3,2.2
			c-0.3,1.3-0.3,3.1-0.3,5.3s0.3,4.7,0.3,7.5c0.3,2.8,0.6,6,0.9,9.1l0.6,4.4c0.6-2.8,0.9-5.3,1.3-7.9c0.3-2.2,0.6-4.4,0.6-6.3
			s0.3-3.8,0-5.7C386.1,604,385.8,602.4,385.8,600.5z"/>
		<path fill="#00254A" d="M411.6,652.7c-1.6,0.3-3.1,0.3-4.4,0c-1.3-0.3-2.5-1.3-3.8-2.2c-0.9-0.9-1.9-2.2-2.8-3.8
			c-0.6-1.6-1.3-3.1-1.9-4.7c-0.3-1.6-0.6-3.1-0.6-4.7c0-1.6,0-3.1,0.3-5c0.3-1.6,0.6-3.1,0.9-4.7c0.6-1.6,1.3-2.8,2.2-4.1
			c0.9-1.3,1.9-2.2,3.1-3.1c1.3-0.9,2.5-1.6,4.1-1.9c1.9-0.3,3.5-0.3,4.7,0c1.3,0.6,2.5,1.3,3.8,2.2c-1.3-5-1.9-9.7-2.5-13.5
			c-0.3-4.1-0.6-7.5-0.3-10.4c0.3-2.8,0.9-5,1.6-6.6c0.9-1.6,2.2-2.5,3.5-3.1c0.6,0,0.9-0.3,1.6,0c0.3,0,0.9,0.3,1.3,0.3
			c0.3,0.3,0.6,0.6,0.9,1.3c0.3,0.6,0.6,1.3,0.6,2.2c0.3,1.9,0.6,3.8,0.9,6.3c0.3,2.5,0.3,5,0.3,7.9c0,2.8,0,6-0.3,9.1
			s-0.3,6.6-0.9,10.4c0.6,2.8,1.3,5.3,1.9,7.5s0.9,3.8,1.6,5.3c0.3,1.6,0.9,2.5,1.3,3.5s0.6,1.6,0.9,1.9c0.3,0.3,0.6,0.6,0.9,0.9
			c0.3,0.3,0.6,0,0.9,0c0.6,0,1.3-0.6,1.6-1.3c0.6-0.6,0.9-1.6,1.6-2.8c0.3-1.3,0.9-2.8,1.3-4.7c0.3-1.9,0.9-3.8,1.6-6.3l0.3-0.9
			l1.9,0.9l-0.3,0.9c-0.9,3.5-1.6,6.3-2.2,8.8c-0.6,2.2-1.3,4.4-2.2,5.7c-0.6,1.6-1.3,2.5-2.2,3.1c-0.6,0.6-1.6,1.3-2.5,1.3
			c-0.9,0.3-1.9,0.3-2.5,0c-0.9-0.3-1.6-0.9-2.2-1.9c-0.6-0.9-1.6-2.2-2.2-3.5c-0.6-1.6-1.3-3.5-1.9-5.3c-0.6,2.2-0.9,4.1-1.6,5.7
			c-0.6,1.9-1.3,3.5-2.2,4.7s-1.6,2.5-2.8,3.5C413.8,651.8,412.8,652.4,411.6,652.7z M410,620.3c-1.6,0.3-2.5,1.3-3.5,2.2
			c-0.9,1.3-1.6,2.5-1.9,4.1c-0.3,1.6-0.6,3.5-0.3,5.3c0,1.9,0.3,3.8,0.6,5.7c0.3,1.6,0.9,2.8,1.3,4.1c0.6,1.3,1.3,2.5,1.9,3.5
			s1.6,1.6,2.2,2.2c0.9,0.3,1.6,0.6,2.5,0.3s1.6-0.6,2.5-1.3c0.6-0.6,1.3-1.6,1.9-2.5c0.6-1.3,1.3-2.5,1.6-4.4
			c0.3-1.6,0.9-3.8,1.3-6.3c-0.3-1.3-0.6-2.5-1.3-4.1c-0.3-1.6-0.6-3.1-1.3-4.7c-0.9-1.6-2.2-2.8-3.8-3.5
			C412.8,620,411.6,620,410,620.3z M421.3,592.7c-0.3-1.3-0.6-2.2-0.9-2.5c-0.3-0.3-0.6-0.6-1.3-0.6c-0.6,0-0.9,0.9-1.3,2.2
			c0,1.3,0,3.1,0.3,5.3s0.6,4.7,1.3,7.5c0.6,2.8,1.3,5.7,1.9,8.8l0.9,4.4c0.3-2.8,0.3-5.7,0.3-7.9c0-2.2,0-4.4,0-6.3
			c0-1.9-0.3-3.8-0.6-5.7C422.3,596.4,421.6,594.6,421.3,592.7z"/>
		<path fill="#00254A" d="M440.8,600.5c0.3,0.9,0.3,1.9,0,2.5c-0.3,0.9-0.9,1.3-1.9,1.6c-0.9,0.3-1.9,0.3-2.5,0
			c-0.9-0.3-1.3-0.9-1.6-1.9c-0.3-0.9-0.3-1.9,0.3-2.5c0.3-0.9,0.9-1.6,1.9-1.6c0.9-0.3,1.9-0.3,2.5,0.3
			C439.9,599,440.5,599.6,440.8,600.5z M440.5,626.3v0.9v0.9l-1.9-0.6v-0.9c0.3-1.6,0.3-3.1,0.3-4.7c0-1.6,0-2.8-0.3-4.1
			c0-1.3-0.3-2.5-0.3-3.5s-0.3-1.6,0-2.2c0-0.3,0.3-0.6,0.3-0.9c0-0.3,0.6-0.6,0.6-0.9c0.3-0.3,0.6-0.3,0.9-0.6
			c0.3,0,0.6-0.3,0.6-0.3c0.6-0.3,0.9-0.3,1.3,0c0.3,0.3,0.6,0.6,0.6,1.3c0,0.3,0.3,0.9,0.6,2.2c0.3,1.3,0.6,2.5,0.9,4.4
			c0.3,1.9,0.9,3.8,1.6,6c0.6,2.2,1.3,4.4,2.2,6.6c0.6,1.6,0.9,2.8,1.6,3.8c0.6,0.9,0.9,1.6,1.3,1.9c0.3,0.3,0.6,0.6,1.3,0.6
			c0.3,0,0.6,0,0.9,0s0.9-0.6,1.3-0.9c0.3-0.6,0.9-1.3,1.3-2.5c0.3-1.3,0.6-2.8,1.3-4.7c0.3-1.9,0.6-4.4,1.3-7.2v-0.9l1.9,0.6v0.9
			c-0.3,2.2-0.6,4.4-0.9,6.6c-0.3,2.2-0.6,4.1-1.3,6c-0.6,1.9-1.3,3.5-1.9,4.7c-0.6,1.3-1.6,2.2-2.5,2.5c-0.9,0.3-2.2,0.3-2.8,0.3
			c-0.9-0.3-1.9-0.6-2.5-1.6c-0.9-0.9-1.6-1.9-2.5-3.5c-0.9-1.6-1.6-3.5-2.5-6c-0.3-0.6-0.6-1.3-0.6-2.2c-0.3-0.6-0.6-1.6-0.6-2.5
			L440.5,626.3z"/>
		<path fill="#00254A" d="M467.8,602.1c-0.6,0.3-1.3,0.9-1.9,1.9c-0.6,0.9-1.3,2.2-1.6,3.5s-0.9,2.8-0.9,4.4
			c-0.3,1.6-0.3,3.1-0.6,4.7c0.9,2.2,1.9,4.7,3.1,7.2s2.2,5.3,3.8,8.5c0.3,0.3,0,0.9,0,1.3c-0.3,0.3-0.6,0.9-0.9,1.3
			s-0.6,0.6-1.3,0.9c-0.3,0.3-0.9,0.6-1.3,0.6c-0.3,0.3-0.6,0.3-1.3,0c-0.3,0-0.9-0.6-1.3-1.3c-0.3-0.3-0.3-0.9-0.6-1.6
			c-0.3-0.6-0.3-1.3-0.6-1.9c-0.3-0.6-0.3-1.6-0.6-2.2c-0.3-0.6-0.3-1.6-0.3-2.2l-8.2-18.6c-0.3-0.6-0.3-0.9-0.6-1.3
			c0-0.3-0.3-0.6-0.3-0.6c0-0.3,0-0.9,0.3-1.3c0.3-0.3,0.6-0.6,0.9-0.9c0.3-0.3,0.6-0.6,1.3-0.6c0.3-0.3,0.6-0.3,0.9-0.3
			c0.3-0.3,0.6-0.3,0.9,0c0.3,0,0.6,0.6,0.6,1.3c0,0,0.3,0.6,0.6,1.9c0.3,1.3,1.3,3.1,2.2,5.7c0.3-1.6,0.6-3.1,0.9-4.4
			c0.3-1.6,0.9-2.8,1.6-4.1c0.6-1.3,1.3-2.5,2.2-3.5c0.9-0.9,1.6-1.6,2.8-2.2c1.9-0.9,3.5-0.9,5,0s2.5,2.2,3.5,4.4
			c0.6,1.3,1.3,2.8,1.6,4.4c0.6,1.6,0.9,3.5,1.6,5c0.6,1.6,0.9,3.5,1.6,5c0.6,1.6,0.9,3.1,1.6,4.4c0.6,1.6,1.6,2.2,2.5,1.9
			c0.3,0,0.6-0.6,0.9-0.9c0.3-0.6,0.6-1.6,0.9-2.5c0.3-1.3,0.6-2.8,0.6-5c0.3-1.9,0.3-4.7,0.6-7.9v-0.9l2.2,0.6v0.9
			c-0.3,3.8-0.3,6.9-0.6,9.1c-0.3,2.5-0.6,4.4-1.3,6c-0.3,1.6-0.9,2.8-1.6,3.5c-0.6,0.9-1.3,1.3-2.2,1.9c-0.6,0.3-0.9,0.3-1.6,0.6
			c-0.6,0-1.3,0-1.9-0.3c-0.6-0.3-1.3-0.6-1.6-0.9c-0.6-0.6-0.9-1.3-1.6-2.2c-0.6-1.6-1.3-3.1-1.9-5.3c-0.6-1.9-1.3-4.1-1.9-6
			c-0.6-1.9-1.3-3.8-1.6-5.7c-0.6-1.9-0.9-3.1-1.6-4.4c-0.3-0.9-0.9-1.6-1.6-1.9C469.4,601.8,468.8,601.8,467.8,602.1z"/>
		<path fill="#00254A" d="M517.2,629.8c-0.6-0.9-0.9-2.2-1.3-3.5c-0.3-1.3-0.3-2.8-0.3-4.1c0-1.3,0-3.1,0.3-5
			c0.3-1.9,0.3-3.5,0.6-5.3l-4.1-6.6c0,1.6,0,2.8-0.3,4.1c-0.3,1.3-0.6,2.5-0.9,3.5s-0.9,1.9-1.6,2.8c-0.6,0.9-1.3,1.6-2.2,1.9
			c-1.3,0.6-2.2,0.9-3.8,1.3c-1.3,0-2.8-0.3-4.1-0.9c-1.6-0.6-2.8-1.6-4.4-3.1c-1.6-1.3-2.8-3.1-4.4-5.7c-1.3-1.9-2.2-4.1-2.8-6
			c-0.6-2.2-0.9-4.1-0.9-6.3c0-1.9,0.3-3.8,1.3-5.7c0.6-1.6,2.2-3.1,3.8-4.1c1.3-0.9,2.8-1.3,4.4-1.6c1.6-0.3,3.1,0,4.7,0.6
			l-0.3-0.3c-0.3-0.3-0.3-0.9-0.3-1.6c0-0.6,0.3-0.9,0.6-1.6c0.3-0.6,0.6-0.9,0.9-1.3c0.3-0.3,0.6-0.6,1.3-0.9
			c0.3-0.3,0.6-0.3,0.9-0.3c0.3,0,0.3,0,0.6,0.3c0.3,0.3,0.6,1.3,1.3,2.5s1.9,3.5,3.5,6l9.1,15.4c0-0.9,0.3-2.2,0.3-3.5
			c0-1.3,0.3-2.5,0.3-4.1c0-1.3,0-2.8,0-4.1c0-1.6,0-2.8,0-4.1v-0.9l2.2,0.3v0.9c0,1.6,0,3.1,0,4.7c0,1.6,0,3.5-0.3,5
			c0,1.6-0.3,3.1-0.3,4.7c-0.3,1.6-0.3,2.8-0.6,4.4l4.7,7.9c1.3,2.2,2.2,4.1,2.8,6c0.6,1.9,0.6,3.5,0.6,4.7c0,1.3-0.6,2.5-1.3,3.5
			c-0.6,0.9-1.6,1.9-2.5,2.5c-1.3,0.9-2.8,0.9-4.1,0.6C519.4,632,518.1,631,517.2,629.8z M507.8,612.2c0.6-0.3,1.3-0.9,1.9-1.9
			c0.3-0.9,0.9-1.9,0.9-2.8c0.3-0.9,0.3-2.2,0.3-3.1s0-2.2-0.3-2.8l-6-10.1c-0.6-0.9-1.3-1.9-2.2-2.5c-0.9-0.6-1.6-1.3-2.5-1.6
			c-0.9-0.3-1.9-0.3-2.8-0.3c-0.9,0-1.6,0.3-2.5,0.9c-1.3,0.6-1.9,1.6-2.5,2.8c-0.3,1.3-0.6,2.5-0.6,4.1c0,1.6,0.3,2.8,0.9,4.4
			c0.6,1.6,1.3,3.1,2.2,4.7c0.9,1.9,2.2,3.5,3.1,4.7c1.3,1.3,2.2,2.5,3.5,3.1c1.3,0.6,2.2,1.3,3.1,1.3
			C505.9,612.8,506.8,612.8,507.8,612.2z M523.2,629.4c0.3-0.3,0.6-0.6,0.9-0.9c0.3-0.3,0.3-0.9,0.3-1.6c0-0.6-0.3-1.6-0.6-2.8
			s-1.3-2.8-2.2-4.4l-3.1-5.3c-0.3,2.8-0.6,5.7-0.6,7.9c0,2.5,0.6,4.4,1.3,6c0.3,0.6,0.9,1.3,1.9,1.6
			C521.6,630.1,522.6,630.1,523.2,629.4z"/>
		<path fill="#00254A" d="M538.6,569.4c2.2,2.5,4.1,4.4,6,6c1.9,1.6,3.8,2.8,5.3,3.8c1.6,0.9,3.1,1.3,4.4,1.3s2.5-0.3,3.5-1.3
			c1.3-1.3,1.9-2.5,1.9-4.4c0-1.9-0.6-3.8-1.9-6c-1.3,0.6-2.8,1.3-4.1,1.6c-1.6,0.3-3.1,0.3-4.7,0c-1.6-0.3-3.1-0.9-4.7-1.6
			c-1.6-0.9-2.8-1.9-4.1-3.5c-0.9-1.3-1.9-2.2-2.2-3.5c-0.6-1.3-0.6-2.2-0.6-3.1s0-1.9,0.6-2.8c0.3-0.9,0.9-1.6,1.6-2.2
			c0.9-0.6,1.9-1.3,3.1-1.6c1.3-0.3,2.8-0.3,4.4,0c1.6,0.3,3.1,0.9,5,2.2c1.9,0.9,3.5,2.5,5,4.4c0.6,0.6,1.3,1.6,1.9,2.2
			c0.6,0.6,0.9,1.6,1.6,2.5c0.6-1.3,1.3-2.5,1.6-3.8s0.3-2.8-0.3-4.4l-0.3-0.9l2.2-0.3l0.3,0.9c0.6,1.9,0.6,4.1,0.3,6
			c-0.3,1.9-1.3,3.5-2.5,5c0.6,1.3,0.9,2.8,1.3,4.1c0.3,1.6,0.3,2.8,0,4.1c-0.3,1.3-0.6,2.5-1.3,3.8c-0.6,1.3-1.6,2.2-2.5,3.1
			c-1.6,1.3-3.1,2.2-5,2.8c-1.9,0.6-4.1,0.3-6.3-0.3s-4.7-1.9-7.5-4.1c-2.8-1.9-5.7-4.7-8.8-8.2c-4.4-5-7.9-9.4-10.4-13.2
			c-2.5-3.8-4.4-7.2-5.7-10.1c-1.3-2.8-1.9-5.3-1.6-6.9c0-1.9,0.6-3.1,1.6-4.1c0.6-0.6,1.3-0.6,2.2-0.6s1.9,0.9,3.1,2.2
			c0.9,0.9,1.9,2.2,2.8,3.8c0.9,1.6,1.9,3.1,3.1,4.7c0.9,1.9,2.2,3.5,3.1,5.7c0.9,1.9,2.2,3.8,3.1,6c0.9,1.9,1.9,3.8,2.8,6
			C537,565.9,538,567.8,538.6,569.4z M519.7,540.5c-0.3-0.3-0.6-0.6-0.9-0.9c-0.3-0.3-0.6,0-0.9,0c-0.3,0.3-0.3,0.6,0.3,1.6
			c0.3,0.9,0.9,1.9,1.6,3.1c0.6,1.3,1.6,2.8,2.8,4.4c1.3,1.6,2.2,3.1,3.5,5s2.5,3.5,4.1,5.3c1.6,1.9,2.8,3.5,4.1,5
			c-1.3-2.2-2.2-4.4-3.5-6.9c-1.3-2.2-2.5-4.4-3.8-6.6c-1.3-2.2-2.5-4.1-3.8-5.7C521.9,543.3,520.7,541.7,519.7,540.5z M542.4,562.8
			c0.9,1.3,2.2,2.2,3.5,2.8c1.3,0.6,2.5,1.3,3.8,1.6s2.5,0.3,3.8,0s2.5-0.6,3.5-0.9c-0.3-0.6-0.9-1.3-1.3-1.9
			c-0.6-0.6-0.9-1.3-1.6-1.9c-1.3-1.6-2.5-2.8-3.8-3.8s-2.5-1.9-3.5-2.2c-0.9-0.3-2.2-0.6-3.1-0.9c-0.9,0-1.6,0.3-2.2,0.6
			c-0.6,0.6-0.9,1.6-0.9,2.8C540.5,560.3,541.1,561.5,542.4,562.8z"/>
		<path fill="#00254A" d="M580.4,553.7c0.6-0.6,1.3-1.6,1.6-2.8c0.3-0.9,0.3-2.2,0.3-3.8c0-1.6-0.3-3.1-0.9-5
			c-0.3-1.9-1.3-4.1-2.2-6.6l-0.3-0.9l2.2-0.3l0.3,0.9c1.3,3.1,1.9,6,2.5,8.5c0.6,2.5,0.9,4.7,0.9,6.6s-0.3,3.8-0.6,5
			c-0.3,1.3-1.3,2.5-2.2,3.5c-1.3,1.3-2.5,2.2-4.1,2.8c-1.6,0.6-3.1,0.6-4.7,0.6c-1.6-0.3-3.1-0.6-4.7-1.6c-1.6-0.6-3.1-1.9-4.4-3.1
			c-2.2-1.9-3.8-4.1-5-6.6c-1.3-2.5-1.9-4.4-2.2-6.6c-0.3-2.2-0.3-4.4,0.3-6.3s1.3-3.5,2.5-5c1.3-1.3,2.5-2.2,4.1-2.2
			c1.3,0,2.5,0.3,3.8,1.3c0.9,0.9,1.6,2.2,2.2,3.5c0.3,1.6,0.6,3.1,0.3,4.7c0,1.9-0.3,3.8-0.6,6c-0.3,2.2-0.9,4.4-1.3,6.6
			c1.3,0.9,2.5,1.6,3.5,1.9c1.3,0.3,2.2,0.6,3.5,0.6c1.3,0,2.2,0,3.1-0.6C578.8,555.2,579.8,554.6,580.4,553.7z M564.7,537
			c-0.9-0.6-1.6-1.3-2.5-1.3s-1.6,0.3-2.2,0.9c-0.6,0.6-0.9,1.3-0.9,2.2c-0.3,0.9,0,1.9,0.3,3.1c0.3,1.3,0.9,2.5,1.9,4.1
			c0.9,1.6,2.5,3.1,4.1,4.7l0.6,0.6c0.3-0.9,0.6-2.2,0.6-3.8c0.3-1.3,0.3-2.8,0.3-4.1c0-1.3-0.3-2.8-0.6-4.1
			C565.9,538.9,565.6,538,564.7,537z"/>
		<path fill="#00254A" d="M595.5,535.8c0.3-0.3,0.3-0.9,0.3-1.9s-0.3-1.9-0.6-3.5c-0.3-1.3-0.9-2.8-1.6-4.4c-0.6-1.6-1.3-3.5-2.2-5
			l-0.3-0.9l2.2-0.6l0.3,0.9c1.3,2.8,2.5,5.7,3.5,7.9c0.9,2.2,1.6,4.1,1.9,5.7c0.3,1.6,0.6,2.8,0.6,4.1c0,0.9-0.3,1.9-0.9,2.8
			c-0.6,0.9-1.9,1.6-2.8,1.6c-1.3,0.3-2.8,0-4.7-0.9c-1.9-0.6-4.1-1.9-6.6-3.8c-2.5-1.9-5.7-4.1-9.4-6.9c-5-4.1-9.4-7.9-12.6-11.3
			c-3.5-3.5-6-6.3-7.5-9.1c-1.9-2.5-2.8-5-3.1-6.9c-0.3-1.9,0-3.5,0.9-4.4c0.6-0.6,1.3-0.9,2.2-0.9c0.9,0,1.9,0.6,3.5,1.6
			c0.9,0.9,2.2,1.9,3.5,3.1c1.3,1.3,2.5,2.8,3.8,4.4s2.8,3.1,4.1,5s2.8,3.5,4.1,5.3c1.3,1.9,2.5,3.5,3.8,5.3c1.3,1.9,2.5,3.5,3.5,5
			c2.8,1.9,5,3.8,6.9,4.7s3.1,2.2,4.4,2.5c1.3,0.6,1.9,0.9,2.5,0.9C594.6,536.4,595.2,536.1,595.5,535.8z M556.5,502.7
			c-0.3-0.3-0.9-0.6-1.3-0.6c-0.3,0-0.6,0-0.9,0.3c-0.3,0.3,0,0.6,0.3,1.6c0.6,0.6,1.3,1.9,2.2,2.8c0.9,1.3,2.2,2.5,3.5,3.8
			c1.3,1.3,2.8,2.8,4.4,4.4c1.6,1.6,3.1,3.1,4.7,4.4c1.6,1.6,3.5,2.8,5,4.4c-1.6-2.2-3.1-4.1-4.7-6.3c-1.6-2.2-3.1-4.1-4.7-6
			c-1.6-1.9-3.1-3.5-4.7-5C559.3,504.9,557.8,503.7,556.5,502.7z"/>
		<path fill="#00254A" d="M607.1,520.3c0.3-0.3,0.3-0.9,0.3-1.9s-0.3-1.9-0.9-3.1c-0.6-1.3-0.9-2.8-1.9-4.4c-0.6-1.6-1.6-3.1-2.5-5
			l-0.3-0.9l1.9-0.6l0.3,0.9c1.6,2.8,2.8,5.3,3.8,7.5s1.9,4.1,2.2,5.7c0.6,1.6,0.6,2.8,0.6,4.1c0,0.9-0.3,1.9-0.9,2.8
			c-0.6,0.9-1.6,1.6-2.8,1.9c-1.3,0.3-2.8,0-4.7-0.6c-1.9-0.6-4.1-1.9-6.9-3.5c-2.8-1.6-6-3.8-9.7-6.6c-5.3-3.8-9.7-7.5-13.2-10.7
			s-6.3-6-8.2-8.8c-1.9-2.8-3.1-4.7-3.5-6.6c-0.3-1.9-0.3-3.5,0.6-4.4c0.6-0.6,1.3-0.9,2.2-0.9s1.9,0.3,3.5,1.6
			c1.3,0.9,2.2,1.9,3.8,3.1c1.3,1.3,2.5,2.5,4.1,4.1c1.6,1.6,2.8,3.1,4.4,4.7c1.6,1.6,2.8,3.5,4.4,5c1.3,1.6,2.8,3.5,4.1,5
			c1.3,1.6,2.5,3.1,3.8,4.7c2.8,1.9,5.3,3.5,7.2,4.4c1.9,1.3,3.5,1.9,4.7,2.5c1.3,0.6,2.2,0.6,2.8,0.6
			C606.8,521,606.8,521,607.1,520.3z M566.6,489.5c-0.3-0.3-0.9-0.6-1.3-0.6c-0.3,0-0.6,0-0.9,0.3s0,0.6,0.6,1.6
			c0.6,0.6,1.3,1.6,2.2,2.8c0.9,0.9,2.2,2.2,3.8,3.8c1.6,1.3,2.8,2.8,4.7,4.1c1.6,1.6,3.5,2.8,5,4.4c1.9,1.6,3.5,2.8,5,4.1
			c-1.6-1.9-3.1-4.1-5-6c-1.9-1.9-3.5-3.8-5-5.7c-1.6-1.9-3.5-3.5-5-4.7C569.4,491.7,567.8,490.5,566.6,489.5z"/>
		<path fill="#00254A" d="M620.3,502.1c0.6-0.9,0.9-1.9,0.9-2.8c0-1.3,0-2.5-0.3-3.8c-0.3-1.6-0.9-3.1-1.6-5c-0.6-1.9-1.9-3.8-3.1-6
			l-0.6-0.9l1.9-0.6l0.6,0.9c1.6,2.8,3.1,5.3,4.1,7.9s1.6,4.4,1.9,6.3s0.3,3.5,0.3,5c-0.3,1.6-0.6,2.8-1.3,3.8
			c-0.9,1.6-2.2,2.5-3.5,3.5c-1.3,0.6-2.8,1.3-4.4,1.3c-1.6,0-3.1,0-5-0.6c-1.6-0.6-3.5-1.3-5-2.2c-2.5-1.6-4.7-3.5-6.3-5.3
			c-1.6-1.9-2.8-4.1-3.5-6.3c-0.6-2.2-0.9-4.1-0.9-6c0-1.9,0.6-3.8,1.6-5.3s2.2-2.5,3.5-2.8c1.3-0.3,2.5,0,3.8,0.6s2.2,1.9,2.8,3.1
			c0.6,1.3,0.9,2.8,1.3,4.7c0.3,1.9,0.3,3.8,0.3,6s0,4.4,0,6.6c1.3,0.6,2.5,0.9,3.8,1.3c1.3,0.3,2.5,0.3,3.5,0
			c0.9,0,2.2-0.6,2.8-0.9C619.1,504,619.7,503.1,620.3,502.1z M601.8,488.6c-0.9-0.6-1.9-0.9-2.8-0.6c-0.9,0.3-1.6,0.6-1.9,1.3
			c-0.3,0.6-0.6,1.3-0.6,2.2s0.3,1.9,0.9,3.1c0.6,1.3,1.6,2.5,2.8,3.8s2.8,2.5,5,4.1l0.9,0.6c0-0.9,0-2.2,0-3.8
			c0-1.3-0.3-2.8-0.6-4.1c-0.3-1.3-0.6-2.5-1.3-3.8C603.7,490.2,602.7,489.2,601.8,488.6z"/>
		<path fill="#00254A" d="M631.3,464.1c1.6,0.9,3.1,1.9,4.4,3.5c1.3,1.3,2.2,2.8,2.8,4.4c0.6,1.6,0.9,3.5,0.9,5
			c0,1.9-0.6,3.5-1.6,5.3c-0.6,1.3-1.6,2.5-2.5,3.1c-0.9,0.9-1.9,1.3-3.1,1.6c-1.3,0.3-2.2,0.3-3.5,0.3c-1.3,0-2.2-0.3-3.1-0.9
			s-1.9-1.3-2.5-2.2c-0.6-0.9-0.9-1.9-1.3-2.8c-0.3-0.9-0.3-1.9-0.3-2.8c0-0.9,0.3-1.9,0.9-2.8c0.3-0.6,0.6-1.3,1.3-1.6l0.9,0.6
			c-0.3,0.6-0.6,1.6-0.6,2.5s0,1.9,0.3,2.8c0.3,0.9,0.6,1.6,1.3,2.5c0.6,0.6,1.3,1.3,2.2,1.9c1.6,0.9,3.1,0.9,4.7,0.3
			c1.6-0.6,2.8-1.9,3.8-3.8c0.6-0.9,0.9-1.9,0.9-2.8c0-0.9,0-1.9-0.3-2.8c-0.3-0.9-0.9-1.9-1.6-2.5c-0.6-0.6-1.6-1.6-2.8-2.2
			c-0.9-0.6-2.2-0.9-3.1-0.9c-1.3,0-2.2,0-3.5,0.3s-2.2,0.6-3.5,0.9c-1.3,0.6-2.2,0.9-3.5,1.6c-1.3,0.6-2.2,0.9-3.1,1.6
			s-2.2,0.9-3.1,1.3l6,8.2l-1.9,0.9l-6-8.2c-1.3,0.3-2.5,0.6-3.5,0.6s-1.9-0.3-3.1-0.9c-0.6-0.3-0.9-0.6-1.6-1.3
			c-0.3-0.6-0.6-0.9-0.9-1.6s-0.3-1.3-0.3-1.6c0-0.6,0.3-1.3,0.3-1.6c0.6-0.9,1.3-1.6,1.9-1.6c0.6-0.3,1.6,0,2.2,0.3
			c0.3,0.3,0.6,0.3,0.9,0.6c0.3,0.3,0.6,0.6,0.9,0.9c0.3,0.3,0.6,0.6,0.9,0.9c0.3,0.3,0.6,0.6,0.6,0.6c0.9-0.3,1.9-0.9,3.1-1.6
			c0.9-0.6,2.2-1.6,3.5-2.2c1.3-0.9,2.5-1.6,3.8-2.2s2.5-1.3,3.8-1.6s2.5-0.6,3.8-0.6C628.8,463.1,630.1,463.4,631.3,464.1z
			 M603.4,470.4c-0.3,0.3-0.3,0.6,0,0.9c0,0.3,0.3,0.6,0.6,0.9c0.3,0.3,0.9,0.3,1.6,0.3c0.6,0,1.3,0,2.2-0.3
			c-0.3-0.6-0.6-0.9-1.3-1.3c-0.3-0.3-0.9-0.6-1.3-0.9c-0.3-0.3-0.6-0.3-1.3-0.3S603.7,470,603.4,470.4z"/>
	</g>
</g>
</svg>
