<?xml version="1.0" encoding="utf-8"?>
<!-- Generator: Adobe Illustrator 18.1.0, SVG Export Plug-In . SVG Version: 6.00 Build 0)  -->
<svg version="1.1" id="Layer_1" xmlns="http://www.w3.org/2000/svg" xmlns:xlink="http://www.w3.org/1999/xlink" x="0px" y="0px"
	 viewBox="0 0 208.4 229" style="enable-background:new 0 0 208.4 229;" xml:space="preserve">
<g>
	<circle style="fill:#939598;" cx="94.9" cy="101.6" r="85.6"/>
	<circle style="fill:none;stroke:#414042;stroke-width:4;stroke-miterlimit:10;" cx="94.6" cy="102" r="74.3"/>
	<path style="fill:#BCBEC0;" d="M95.2,80.7C85.1,76.3,74.3,82.9,69,92.2c-7,12.1-16.5,25.1-31.3,28c0,0,4.3,15.7,30.1,25.2
		c0,0-3.5,5.9,2.7,8.2c0,0,5.3,0.8,6.3-4.5c0,0,6.7,1.8,13.7,1.2c-0.9,0.1-1.5-12.2-1.4-13.2c0.4-7.2,3.5-16,7.6-22
		c2.3-3.4,4-7.3,5.1-11.2c1.8-6.2,2.7-17.2-3.5-21.4C97.2,81.8,96.2,81.2,95.2,80.7z"/>
	<path style="fill:#E6E7E8;" d="M52.8,112.8c0,0,9.4,22,36.7,20.3c0,0,0.7-4.2,2.2-8.2c0,0-26.1-1.2-31.9-19.1
		C59.8,105.7,55.5,110.4,52.8,112.8z"/>
	<path style="fill:#6D6E71;" d="M67.7,145.4c0,0-0.9,2.6-0.9,2.8c-0.3,1.8,0.1,3.6,1.6,4.7c1.7,1.3,3.8,1.5,5.7,0.7
		c0.7-0.3,1.4-0.8,1.9-1.5c0.3-0.4,0.5-0.8,0.6-1.3c0-0.2,0.4-1.6,0.2-1.6C76.9,149.1,69.8,147,67.7,145.4z"/>
	<path style="fill:#A7A9AC;" d="M94.4,73.1c10.1-4.4,20.8,2.1,26.2,11.5c7,12.1,16.5,25.1,31.3,28c0,0-4.3,15.7-30.1,25.2
		c0,0,3.5,5.9-2.7,8.2c0,0-5.3,0.8-6.3-4.5c0,0-6.7,1.8-13.7,1.2c0.9,0.1,1.5-12.2,1.4-13.2c-0.4-7.2-3.5-16-7.6-22
		c-2.3-3.4-4-7.3-5.1-11.2C86,90,85.1,79.1,91.3,74.9C92.3,74.2,93.3,73.6,94.4,73.1z"/>
	<path style="fill:#E6E7E8;" d="M136.7,105.2c0,0-9.4,22-36.7,20.3c0,0-0.7-4.2-2.2-8.2c0,0,26.1-1.2,31.9-19.1
		C129.7,98.1,134,102.8,136.7,105.2z"/>
	<path style="fill:#58595B;" d="M121.8,137.8c0,0,0.9,2.6,0.9,2.8c0.3,1.8-0.1,3.6-1.6,4.7c-1.7,1.3-3.8,1.5-5.7,0.7
		c-0.7-0.3-1.4-0.8-1.9-1.5c-0.3-0.4-0.5-0.8-0.6-1.3c0-0.2-0.4-1.6-0.2-1.6C112.6,141.4,119.8,139.4,121.8,137.8z"/>
	<path style="fill:#FFFFFF;" d="M95.9,73.7c0.6,0.5,1.2,0.9,1.7,1.5c1.1,1.2,1,2.3-0.2,3.8c-1.8,2.1-6.7,2.9-9,1.4
		c-0.5-0.3-1-0.9-1.4-1.3c0-0.1,0-0.2,0.1-0.3c-2.8,0.4-5.5,1-8.3,1.3c-5.5,0.5-11.1,0.5-16.5-1.3c-2.6-0.9-5.1-2.1-6.8-4.4
		c-2.4-3.2-2.3-6.5-0.7-9.9c1.7-3.6,4.5-6.2,7.8-8.2c3.2-2,6.6-2,10-0.3c4.2,2.1,7.3,5.5,9.8,9.3c2,3,3.7,6.3,5.6,9.4
		c0.1,0.2,0.3,0.5,0.5,0.7c1.8-1.3,3.9-1.5,6-1.5c0.2,0,0.5-0.1,0.7-0.2c3-2.9,5.9-5.8,8.8-8.8c2-2.1,3.6-4.5,4.9-7.1
		c0.8-1.6,1.2-3.3,1.1-5c-0.2-1.5-1-2.7-2.3-3.6c-1.8-1.2-3.8-1.9-5.9-1c-1,0.4-2,1.2-2.8,2c-2.1,2.4-3.2,5.4-4.1,8.4
		c-1.2,4-1.9,8.1-2.4,12.3c-0.1,0.8-0.2,1.7-0.6,2.5c-0.1-0.2-0.1-0.4-0.2-0.6c-0.4-3.1-0.9-6.3-1.1-9.4c-0.1-2.3,0-4.6,0.3-6.8
		c0.3-2.3,0.8-4.7,1.4-6.9c1-3.2,3-5.8,6.2-7c1.7-0.6,3.6-0.6,5.4-0.6c2.4-0.1,4.8,0.5,7,1.4c2.8,1.1,5.2,2.8,6.3,5.6
		c0.9,2.4,0.8,4.9-0.2,7.4c-1.5,3.5-4,6.2-6.8,8.7c-4.1,3.6-8.9,6.2-13.8,8.7C96.2,73.6,96,73.7,95.9,73.7z M66.6,61
		c-0.4,0.1-0.7,0.1-1,0.3c-1.8,0.8-3,2.2-3.7,4c-0.7,1.7-0.6,3.5,0.5,5c1.6,2.3,4,3.4,6.5,4.4c5.5,2.1,11.2,3,17,3.7
		c0.6,0.1,0.9-0.1,1-0.8c0.1-0.5,0.2-1,0.5-1.3c0.6-0.6,0.3-1.1-0.2-1.5c-1.4-1.5-2.9-2.9-4.3-4.4c-3-3.1-6.3-5.9-10.2-7.9
		C70.8,61.5,68.8,60.9,66.6,61z"/>
	<path style="fill:#FFFFFF;" d="M157,69.8c0,0.2,0,0.4-0.1,0.5c-2,3.6-4.4,6.9-7.8,9.4c-4.7,3.4-9.6,2.4-13.5-1.4
		c-2.5-2.4-4.7-5.1-7.7-6.9c-2.8-1.8-5.8-3-9.1-3.6c-2.6-0.5-5.2-0.5-7.9-0.4c0.4-0.2,0.7-0.5,1.1-0.6c3.1-1,6.3-1.7,9.6-1.6
		c5.1,0.2,9.8,1.7,13.7,5.2c1.2,1.1,2.4,2.3,3.6,3.3c3.1,2.5,6.7,3,10.4,1.7c2.3-0.8,4.3-2.4,6-4.2c0.5-0.5,0.9-1.1,1.4-1.6
		C156.9,69.8,156.9,69.8,157,69.8z"/>
	<path style="fill:#FFFFFF;" d="M33.3,99.6c2.4,1.5,4.7,2.6,7.4,3c3.8,0.5,7.2-0.3,9.7-3.3c1.2-1.4,2.1-3,3-4.6
		c2.3-4.4,5.7-7.6,10.2-9.5c3.3-1.5,6.8-2.3,10.4-2.2c0.7,0,1.5,0,2.2,0c0,0.1,0,0.2,0,0.3c-1.1,0.3-2.3,0.7-3.4,1
		c-3.1,0.9-5.8,2.6-8.3,4.7c-3.4,2.9-5.7,6.5-7.4,10.5c-1.2,2.7-2.7,5.1-5.3,6.7c-2.5,1.5-5.2,1.4-7.8,0.6c-3.6-1.1-6.7-3.2-9.4-5.7
		c-0.4-0.4-0.8-0.7-1.1-1.1C33.2,99.9,33.3,99.8,33.3,99.6z"/>
	<g>
		<path style="fill:none;" d="M47.2,202.5c0,0,123.4,45.3,160.2-86"/>
		<path style="fill:#231F20;" d="M84,209.7c-0.4,0-0.7-0.1-1-0.4c-0.3-0.2-0.5-0.6-0.6-1c-0.1-0.4-0.2-0.9-0.3-1.4
			c0-0.5-0.1-1.1,0-1.6c0-0.9,0.1-1.7,0.2-2.4c0.1-0.7,0.2-1.3,0.3-1.8c0.1-0.5,0.2-0.9,0.3-1.2c0.1-0.3,0.2-0.5,0.2-0.5
			c0.1-0.1,0.1-0.1,0.3-0.2c0.1-0.1,0.2-0.1,0.3-0.2c0.1,0,0.2-0.1,0.3-0.1c0.1,0,0.2,0,0.3,0c0.2,0,0.3,0.1,0.4,0.1
			c0.1,0.1,0.1,0.2,0.1,0.4c0,0,0,0.1-0.1,0.3c0,0.2-0.1,0.4-0.1,0.7c-0.1,0.3-0.1,0.7-0.2,1.1c-0.1,0.4-0.1,0.8-0.2,1.3
			s-0.1,0.9-0.2,1.4c0,0.5-0.1,0.9-0.1,1.4c0,0.4,0,0.7,0,1.1c0,0.3,0,0.6,0.1,0.9c0.1,0.3,0.1,0.5,0.2,0.6c0.1,0.1,0.2,0.2,0.4,0.2
			s0.3-0.1,0.5-0.3c0.1-0.2,0.3-0.5,0.4-0.8c0.1-0.3,0.3-0.7,0.4-1.1c0.1-0.4,0.2-0.8,0.3-1.2c0.1-0.4,0.2-0.8,0.3-1.2
			c0.1-0.4,0.2-0.7,0.2-0.9c0-0.1,0.1-0.2,0.2-0.4c0.1-0.1,0.2-0.2,0.4-0.3c0.1-0.1,0.3-0.1,0.5-0.2c0.2,0,0.3-0.1,0.5,0
			c0.1,0,0.2,0,0.2,0.1c0,0.1,0,0.2,0,0.3c0,0.8,0,1.6,0,2.3s0.2,1.4,0.3,2c0.2,0.6,0.3,1.1,0.6,1.4c0.2,0.4,0.5,0.5,0.8,0.6
			c0.2,0,0.4-0.1,0.6-0.2c0.2-0.2,0.4-0.3,0.5-0.6c0.2-0.2,0.3-0.5,0.4-0.8c0.1-0.3,0.2-0.5,0.2-0.7c-0.3-0.2-0.7-0.4-1-0.8
			c-0.3-0.3-0.5-0.7-0.8-1.2c-0.2-0.5-0.4-0.9-0.5-1.5c-0.1-0.5-0.2-1-0.1-1.6c0-0.3,0.1-0.6,0.1-0.9c0.1-0.3,0.2-0.5,0.3-0.7
			c0.1-0.2,0.3-0.4,0.5-0.5c0.2-0.1,0.4-0.2,0.7-0.2c0.4,0,0.7,0.1,0.9,0.4c0.2,0.2,0.5,0.5,0.6,0.9c0.2,0.4,0.3,0.8,0.3,1.3
			c0.1,0.5,0.1,1,0.1,1.6c0,0.4-0.1,0.8-0.1,1.3s-0.2,0.9-0.3,1.3l0.2,0c0.4,0,0.8-0.1,1.2-0.4c0.3-0.3,0.6-0.7,0.9-1.1l0.1-0.3
			l0.5,0.4l-0.1,0.3c-0.3,0.5-0.7,1-1.1,1.3c-0.5,0.3-1,0.5-1.6,0.5l-0.2,0c-0.2,0.5-0.3,0.9-0.5,1.3c-0.2,0.4-0.4,0.7-0.7,1
			c-0.3,0.3-0.5,0.5-0.8,0.7c-0.3,0.2-0.6,0.2-0.9,0.2c-0.4,0-0.7-0.1-1-0.3c-0.3-0.2-0.5-0.4-0.7-0.6c-0.2-0.3-0.4-0.5-0.5-0.9
			c-0.1-0.3-0.2-0.6-0.3-1c-0.1-0.3-0.1-0.7-0.2-1c0-0.3-0.1-0.6-0.1-0.8c-0.1,0.3-0.2,0.6-0.3,0.9s-0.2,0.7-0.3,1
			c-0.1,0.3-0.3,0.6-0.4,0.9c-0.2,0.3-0.3,0.6-0.5,0.8c-0.2,0.2-0.4,0.4-0.7,0.5C84.6,209.7,84.3,209.8,84,209.7z M90.5,201.6
			c0,0.4,0,0.8,0.1,1.2c0.1,0.4,0.2,0.8,0.3,1.2c0.2,0.4,0.3,0.7,0.6,1c0.2,0.3,0.5,0.5,0.7,0.7c0-0.1,0-0.2,0-0.4
			c0-0.1,0-0.3,0-0.4c0-0.2,0-0.3,0-0.4c0-0.1,0-0.3,0-0.4c0-0.5,0-1,0-1.4c0-0.5-0.1-0.9-0.2-1.2c-0.1-0.4-0.2-0.7-0.4-0.9
			c-0.1-0.2-0.3-0.3-0.5-0.3c-0.1,0-0.2,0-0.3,0.1c-0.1,0.1-0.2,0.2-0.2,0.3c-0.1,0.1-0.1,0.3-0.1,0.4S90.5,201.4,90.5,201.6z"/>
		<path style="fill:#231F20;" d="M99.6,208.5c0.3,0,0.6-0.1,0.9-0.3c0.3-0.2,0.6-0.4,0.9-0.8c0.3-0.3,0.6-0.8,1-1.3
			c0.3-0.5,0.7-1.2,1-1.9l0.1-0.3l0.6,0.4l-0.1,0.3c-0.4,1-0.9,1.8-1.3,2.5c-0.4,0.7-0.9,1.2-1.3,1.7c-0.4,0.4-0.9,0.8-1.3,1
			c-0.4,0.2-0.9,0.3-1.3,0.3c-0.6,0-1.1-0.1-1.5-0.3c-0.5-0.2-0.8-0.5-1.2-0.9c-0.3-0.4-0.6-0.9-0.8-1.4c-0.2-0.5-0.3-1.1-0.3-1.7
			c0-0.9,0.1-1.8,0.3-2.6c0.2-0.8,0.6-1.5,1-2c0.4-0.6,0.9-1,1.4-1.3c0.5-0.3,1.1-0.5,1.7-0.5c0.6,0,1.1,0.1,1.4,0.4
			c0.3,0.3,0.5,0.7,0.5,1.1c0,0.4-0.1,0.9-0.3,1.3c-0.2,0.4-0.6,0.8-1,1.2c-0.4,0.4-0.9,0.8-1.5,1.2c-0.6,0.4-1.1,0.8-1.8,1.2
			c0.1,0.5,0.2,0.9,0.4,1.2c0.2,0.4,0.4,0.7,0.6,0.9c0.2,0.3,0.5,0.5,0.8,0.6C98.9,208.4,99.2,208.5,99.6,208.5z M99.7,201.2
			c0-0.4-0.1-0.6-0.3-0.8c-0.2-0.2-0.4-0.3-0.7-0.3c-0.2,0-0.5,0.1-0.7,0.3c-0.2,0.2-0.5,0.4-0.7,0.8c-0.2,0.4-0.4,0.8-0.5,1.4
			c-0.1,0.6-0.2,1.2-0.1,2l0,0.3c0.3-0.2,0.6-0.4,1-0.7c0.4-0.3,0.7-0.6,1-0.9c0.3-0.3,0.6-0.7,0.8-1
			C99.6,201.9,99.7,201.5,99.7,201.2z"/>
		<path style="fill:#231F20;" d="M107.1,209.5c-0.5,0.1-1,0-1.4-0.2c-0.4-0.2-0.8-0.4-1.1-0.8c-0.3-0.4-0.5-0.8-0.7-1.3
			c-0.2-0.5-0.3-1-0.4-1.6c-0.1-0.5-0.1-1,0-1.5c0-0.5,0.1-1,0.2-1.5c0.1-0.5,0.3-1,0.5-1.4c0.2-0.5,0.5-0.9,0.8-1.2
			c0.3-0.4,0.7-0.7,1.1-0.9c0.4-0.2,0.9-0.4,1.4-0.4c0.6-0.1,1.1,0,1.5,0.2c0.4,0.2,0.8,0.5,1.1,0.8c-0.2-1.6-0.3-3.1-0.3-4.4
			c0-1.3,0.1-2.4,0.3-3.3c0.2-0.9,0.4-1.6,0.8-2.1s0.7-0.8,1.2-0.8c0.2,0,0.3,0,0.5,0c0.1,0,0.3,0.1,0.4,0.2
			c0.1,0.1,0.2,0.2,0.3,0.4s0.1,0.4,0.2,0.7c0.1,0.6,0.1,1.2,0.1,2c0,0.8-0.1,1.6-0.2,2.5c-0.1,0.9-0.2,1.9-0.4,2.9
			c-0.2,1-0.4,2.1-0.6,3.2c0.1,0.9,0.2,1.7,0.3,2.4c0.1,0.7,0.2,1.3,0.3,1.7c0.1,0.5,0.2,0.8,0.3,1.1c0.1,0.3,0.2,0.5,0.3,0.7
			c0.1,0.2,0.2,0.3,0.3,0.3c0.1,0,0.2,0.1,0.3,0c0.2,0,0.4-0.1,0.6-0.3s0.4-0.5,0.6-0.9c0.2-0.4,0.4-0.8,0.6-1.4
			c0.2-0.5,0.4-1.2,0.7-1.9l0.1-0.3l0.6,0.3l-0.1,0.3c-0.4,1.1-0.7,2-1,2.7c-0.3,0.7-0.6,1.3-0.9,1.7c-0.3,0.4-0.5,0.8-0.8,1
			c-0.3,0.2-0.6,0.3-0.9,0.4c-0.3,0-0.6,0-0.8-0.1c-0.2-0.1-0.5-0.3-0.7-0.7c-0.2-0.3-0.4-0.7-0.5-1.2c-0.2-0.5-0.3-1.1-0.4-1.8
			c-0.2,0.6-0.5,1.2-0.7,1.8c-0.3,0.5-0.5,1-0.8,1.4c-0.3,0.4-0.6,0.7-1,0.9C107.9,209.4,107.5,209.5,107.1,209.5z M107.8,199.3
			c-0.5,0.1-0.9,0.3-1.2,0.6c-0.3,0.3-0.6,0.8-0.8,1.2s-0.3,1-0.3,1.6c0,0.6,0,1.2,0,1.8c0.1,0.5,0.2,0.9,0.3,1.4
			c0.1,0.4,0.3,0.8,0.5,1.1c0.2,0.3,0.4,0.6,0.7,0.7s0.5,0.2,0.8,0.2c0.3,0,0.5-0.1,0.8-0.3c0.2-0.2,0.5-0.4,0.7-0.8
			c0.2-0.3,0.4-0.8,0.7-1.3c0.2-0.5,0.4-1.2,0.6-1.9c-0.1-0.4-0.1-0.9-0.2-1.3c-0.1-0.5-0.1-1-0.2-1.5c-0.3-0.5-0.6-1-1-1.2
			C108.7,199.3,108.3,199.2,107.8,199.3z M112.4,191c0-0.4-0.1-0.7-0.2-0.8c-0.1-0.1-0.2-0.2-0.3-0.2c-0.2,0-0.4,0.2-0.4,0.7
			c-0.1,0.4-0.1,1-0.1,1.7c0,0.7,0.1,1.5,0.1,2.4c0.1,0.9,0.2,1.9,0.3,2.9l0.2,1.4c0.2-0.9,0.3-1.7,0.4-2.5c0.1-0.7,0.2-1.4,0.2-2
			c0-0.6,0.1-1.2,0-1.8C112.5,192.1,112.4,191.6,112.4,191z"/>
		<path style="fill:#231F20;" d="M120.6,207.6c-0.5,0.1-1,0.1-1.4,0c-0.4-0.1-0.8-0.4-1.2-0.7c-0.3-0.3-0.6-0.7-0.9-1.2
			c-0.2-0.5-0.4-1-0.6-1.5c-0.1-0.5-0.2-1-0.2-1.5c0-0.5,0-1,0.1-1.6c0.1-0.5,0.2-1,0.3-1.5c0.2-0.5,0.4-0.9,0.7-1.3s0.6-0.7,1-1
			c0.4-0.3,0.8-0.5,1.3-0.6c0.6-0.1,1.1-0.1,1.5,0c0.4,0.2,0.8,0.4,1.2,0.7c-0.4-1.6-0.6-3.1-0.8-4.3c-0.1-1.3-0.2-2.4-0.1-3.3
			c0.1-0.9,0.3-1.6,0.5-2.1c0.3-0.5,0.7-0.8,1.1-1c0.2,0,0.3-0.1,0.5,0c0.1,0,0.3,0.1,0.4,0.1c0.1,0.1,0.2,0.2,0.3,0.4
			s0.2,0.4,0.2,0.7c0.1,0.6,0.2,1.2,0.3,2c0.1,0.8,0.1,1.6,0.1,2.5c0,0.9,0,1.9-0.1,2.9c-0.1,1-0.1,2.1-0.3,3.3
			c0.2,0.9,0.4,1.7,0.6,2.4c0.2,0.7,0.3,1.2,0.5,1.7c0.1,0.5,0.3,0.8,0.4,1.1c0.1,0.3,0.2,0.5,0.3,0.6c0.1,0.1,0.2,0.2,0.3,0.3
			s0.2,0,0.3,0c0.2,0,0.4-0.2,0.5-0.4c0.2-0.2,0.3-0.5,0.5-0.9c0.1-0.4,0.3-0.9,0.4-1.5c0.1-0.6,0.3-1.2,0.5-2l0.1-0.3l0.6,0.3
			l-0.1,0.3c-0.3,1.1-0.5,2-0.7,2.8c-0.2,0.7-0.4,1.4-0.7,1.8c-0.2,0.5-0.4,0.8-0.7,1c-0.2,0.2-0.5,0.4-0.8,0.4
			c-0.3,0.1-0.6,0.1-0.8,0c-0.3-0.1-0.5-0.3-0.7-0.6c-0.2-0.3-0.5-0.7-0.7-1.1c-0.2-0.5-0.4-1.1-0.6-1.7c-0.2,0.7-0.3,1.3-0.5,1.8
			c-0.2,0.6-0.4,1.1-0.7,1.5c-0.3,0.4-0.5,0.8-0.9,1.1C121.3,207.3,121,207.5,120.6,207.6z M120.1,197.3c-0.5,0.1-0.8,0.4-1.1,0.7
			c-0.3,0.4-0.5,0.8-0.6,1.3c-0.1,0.5-0.2,1.1-0.1,1.7c0,0.6,0.1,1.2,0.2,1.8c0.1,0.5,0.3,0.9,0.4,1.3c0.2,0.4,0.4,0.8,0.6,1.1
			c0.2,0.3,0.5,0.5,0.7,0.7c0.3,0.1,0.5,0.2,0.8,0.1c0.3-0.1,0.5-0.2,0.8-0.4c0.2-0.2,0.4-0.5,0.6-0.8c0.2-0.4,0.4-0.8,0.5-1.4
			c0.1-0.5,0.3-1.2,0.4-2c-0.1-0.4-0.2-0.8-0.4-1.3c-0.1-0.5-0.2-1-0.4-1.5c-0.3-0.5-0.7-0.9-1.2-1.1
			C121,197.2,120.6,197.2,120.1,197.3z M123.7,188.5c-0.1-0.4-0.2-0.7-0.3-0.8c-0.1-0.1-0.2-0.2-0.4-0.2c-0.2,0-0.3,0.3-0.4,0.7
			c0,0.4,0,1,0.1,1.7c0.1,0.7,0.2,1.5,0.4,2.4c0.2,0.9,0.4,1.8,0.6,2.8l0.3,1.4c0.1-0.9,0.1-1.8,0.1-2.5c0-0.7,0-1.4,0-2
			c0-0.6-0.1-1.2-0.2-1.8C124,189.7,123.8,189.1,123.7,188.5z"/>
		<path style="fill:#231F20;" d="M129.9,191c0.1,0.3,0.1,0.6,0,0.8c-0.1,0.3-0.3,0.4-0.6,0.5c-0.3,0.1-0.6,0.1-0.8,0
			c-0.3-0.1-0.4-0.3-0.5-0.6c-0.1-0.3-0.1-0.6,0.1-0.8c0.1-0.3,0.3-0.5,0.6-0.5c0.3-0.1,0.6-0.1,0.8,0.1
			C129.6,190.5,129.8,190.7,129.9,191z M129.8,199.2l0,0.3l0,0.3l-0.6-0.2l0-0.3c0.1-0.5,0.1-1,0.1-1.5c0-0.5,0-0.9-0.1-1.3
			c0-0.4-0.1-0.8-0.1-1.1c0-0.3-0.1-0.5,0-0.7c0-0.1,0.1-0.2,0.1-0.3s0.2-0.2,0.2-0.3c0.1-0.1,0.2-0.1,0.3-0.2
			c0.1,0,0.2-0.1,0.2-0.1c0.2-0.1,0.3-0.1,0.4,0c0.1,0.1,0.2,0.2,0.2,0.4c0,0.1,0.1,0.3,0.2,0.7c0.1,0.4,0.2,0.8,0.3,1.4
			c0.1,0.6,0.3,1.2,0.5,1.9c0.2,0.7,0.4,1.4,0.7,2.1c0.2,0.5,0.3,0.9,0.5,1.2c0.2,0.3,0.3,0.5,0.4,0.6c0.1,0.1,0.2,0.2,0.4,0.2
			c0.1,0,0.2,0,0.3,0c0.1,0,0.3-0.2,0.4-0.3c0.1-0.2,0.3-0.4,0.4-0.8c0.1-0.4,0.2-0.9,0.4-1.5c0.1-0.6,0.2-1.4,0.4-2.3l0-0.3
			l0.6,0.2l0,0.3c-0.1,0.7-0.2,1.4-0.3,2.1c-0.1,0.7-0.2,1.3-0.4,1.9c-0.2,0.6-0.4,1.1-0.6,1.5c-0.2,0.4-0.5,0.7-0.8,0.8
			c-0.3,0.1-0.7,0.1-0.9,0.1c-0.3-0.1-0.6-0.2-0.8-0.5c-0.3-0.3-0.5-0.6-0.8-1.1c-0.3-0.5-0.5-1.1-0.8-1.9c-0.1-0.2-0.2-0.4-0.2-0.7
			c-0.1-0.2-0.2-0.5-0.2-0.8L129.8,199.2z"/>
		<path style="fill:#231F20;" d="M138.5,191.5c-0.2,0.1-0.4,0.3-0.6,0.6c-0.2,0.3-0.4,0.7-0.5,1.1c-0.1,0.4-0.3,0.9-0.3,1.4
			c-0.1,0.5-0.1,1-0.2,1.5c0.3,0.7,0.6,1.5,1,2.3c0.4,0.8,0.7,1.7,1.2,2.7c0.1,0.1,0,0.3,0,0.4c-0.1,0.1-0.2,0.3-0.3,0.4
			c-0.1,0.1-0.2,0.2-0.4,0.3c-0.1,0.1-0.3,0.2-0.4,0.2c-0.1,0.1-0.2,0.1-0.4,0c-0.1,0-0.3-0.2-0.4-0.4c-0.1-0.1-0.1-0.3-0.2-0.5
			c-0.1-0.2-0.1-0.4-0.2-0.6c-0.1-0.2-0.1-0.5-0.2-0.7c-0.1-0.2-0.1-0.5-0.1-0.7l-2.6-5.9c-0.1-0.2-0.1-0.3-0.2-0.4
			c0-0.1-0.1-0.2-0.1-0.2c0-0.1,0-0.3,0.1-0.4c0.1-0.1,0.2-0.2,0.3-0.3c0.1-0.1,0.2-0.2,0.4-0.2c0.1-0.1,0.2-0.1,0.3-0.1
			c0.1-0.1,0.2-0.1,0.3,0c0.1,0,0.2,0.2,0.2,0.4c0,0,0.1,0.2,0.2,0.6c0.1,0.4,0.4,1,0.7,1.8c0.1-0.5,0.2-1,0.3-1.4
			c0.1-0.5,0.3-0.9,0.5-1.3c0.2-0.4,0.4-0.8,0.7-1.1c0.3-0.3,0.5-0.5,0.9-0.7c0.6-0.3,1.1-0.3,1.6,0c0.5,0.3,0.8,0.7,1.1,1.4
			c0.2,0.4,0.4,0.9,0.5,1.4c0.2,0.5,0.3,1.1,0.5,1.6c0.2,0.5,0.3,1.1,0.5,1.6c0.2,0.5,0.3,1,0.5,1.4c0.2,0.5,0.5,0.7,0.8,0.6
			c0.1,0,0.2-0.2,0.3-0.3c0.1-0.2,0.2-0.5,0.3-0.8c0.1-0.4,0.2-0.9,0.2-1.6c0.1-0.6,0.1-1.5,0.2-2.5l0-0.3l0.7,0.2l0,0.3
			c-0.1,1.2-0.1,2.2-0.2,2.9c-0.1,0.8-0.2,1.4-0.4,1.9c-0.1,0.5-0.3,0.9-0.5,1.1c-0.2,0.3-0.4,0.4-0.7,0.6c-0.2,0.1-0.3,0.1-0.5,0.2
			c-0.2,0-0.4,0-0.6-0.1c-0.2-0.1-0.4-0.2-0.5-0.3c-0.2-0.2-0.3-0.4-0.5-0.7c-0.2-0.5-0.4-1-0.6-1.7c-0.2-0.6-0.4-1.3-0.6-1.9
			c-0.2-0.6-0.4-1.2-0.5-1.8c-0.2-0.6-0.3-1-0.5-1.4c-0.1-0.3-0.3-0.5-0.5-0.6C139,191.4,138.8,191.4,138.5,191.5z"/>
		<path style="fill:#231F20;" d="M154.2,200.3c-0.2-0.3-0.3-0.7-0.4-1.1c-0.1-0.4-0.1-0.9-0.1-1.3s0-1,0.1-1.6
			c0.1-0.6,0.1-1.1,0.2-1.7l-1.3-2.1c0,0.5,0,0.9-0.1,1.3c-0.1,0.4-0.2,0.8-0.3,1.1c-0.1,0.3-0.3,0.6-0.5,0.9
			c-0.2,0.3-0.4,0.5-0.7,0.6c-0.4,0.2-0.7,0.3-1.2,0.4c-0.4,0-0.9-0.1-1.3-0.3c-0.5-0.2-0.9-0.5-1.4-1c-0.5-0.4-0.9-1-1.4-1.8
			c-0.4-0.6-0.7-1.3-0.9-1.9c-0.2-0.7-0.3-1.3-0.3-2c0-0.6,0.1-1.2,0.4-1.8c0.2-0.5,0.7-1,1.2-1.3c0.4-0.3,0.9-0.4,1.4-0.5
			c0.5-0.1,1,0,1.5,0.2l-0.1-0.1c-0.1-0.1-0.1-0.3-0.1-0.5c0-0.2,0.1-0.3,0.2-0.5c0.1-0.2,0.2-0.3,0.3-0.4s0.2-0.2,0.4-0.3
			c0.1-0.1,0.2-0.1,0.3-0.1c0.1,0,0.1,0,0.2,0.1c0.1,0.1,0.2,0.4,0.4,0.8c0.2,0.4,0.6,1.1,1.1,1.9l2.9,4.9c0-0.3,0.1-0.7,0.1-1.1
			c0-0.4,0.1-0.8,0.1-1.3c0-0.4,0-0.9,0-1.3c0-0.5,0-0.9,0-1.3l0-0.3l0.7,0.1l0,0.3c0,0.5,0,1,0,1.5c0,0.5,0,1.1-0.1,1.6
			c0,0.5-0.1,1-0.1,1.5c-0.1,0.5-0.1,0.9-0.2,1.4l1.5,2.5c0.4,0.7,0.7,1.3,0.9,1.9c0.2,0.6,0.2,1.1,0.2,1.5c0,0.4-0.2,0.8-0.4,1.1
			c-0.2,0.3-0.5,0.6-0.8,0.8c-0.4,0.3-0.9,0.3-1.3,0.2C154.9,201,154.5,200.7,154.2,200.3z M151.2,194.7c0.2-0.1,0.4-0.3,0.6-0.6
			c0.1-0.3,0.3-0.6,0.3-0.9c0.1-0.3,0.1-0.7,0.1-1c0-0.3,0-0.7-0.1-0.9l-1.9-3.2c-0.2-0.3-0.4-0.6-0.7-0.8c-0.3-0.2-0.5-0.4-0.8-0.5
			c-0.3-0.1-0.6-0.1-0.9-0.1c-0.3,0-0.5,0.1-0.8,0.3c-0.4,0.2-0.6,0.5-0.8,0.9c-0.1,0.4-0.2,0.8-0.2,1.3c0,0.5,0.1,0.9,0.3,1.4
			c0.2,0.5,0.4,1,0.7,1.5c0.3,0.6,0.7,1.1,1,1.5c0.4,0.4,0.7,0.8,1.1,1c0.4,0.2,0.7,0.4,1,0.4C150.6,194.9,150.9,194.9,151.2,194.7z
			 M156.1,200.2c0.1-0.1,0.2-0.2,0.3-0.3c0.1-0.1,0.1-0.3,0.1-0.5c0-0.2-0.1-0.5-0.2-0.9c-0.1-0.4-0.4-0.9-0.7-1.4l-1-1.7
			c-0.1,0.9-0.2,1.8-0.2,2.5c0,0.8,0.2,1.4,0.4,1.9c0.1,0.2,0.3,0.4,0.6,0.5C155.6,200.4,155.9,200.4,156.1,200.2z"/>
		<path style="fill:#231F20;" d="M161,181.1c0.7,0.8,1.3,1.4,1.9,1.9c0.6,0.5,1.2,0.9,1.7,1.2c0.5,0.3,1,0.4,1.4,0.4
			c0.4,0,0.8-0.1,1.1-0.4c0.4-0.4,0.6-0.8,0.6-1.4c0-0.6-0.2-1.2-0.6-1.9c-0.4,0.2-0.9,0.4-1.3,0.5c-0.5,0.1-1,0.1-1.5,0
			c-0.5-0.1-1-0.3-1.5-0.5c-0.5-0.3-0.9-0.6-1.3-1.1c-0.3-0.4-0.6-0.7-0.7-1.1c-0.2-0.4-0.2-0.7-0.2-1c0-0.3,0-0.6,0.2-0.9
			c0.1-0.3,0.3-0.5,0.5-0.7c0.3-0.2,0.6-0.4,1-0.5s0.9-0.1,1.4,0c0.5,0.1,1,0.3,1.6,0.7c0.6,0.3,1.1,0.8,1.6,1.4
			c0.2,0.2,0.4,0.5,0.6,0.7c0.2,0.2,0.3,0.5,0.5,0.8c0.2-0.4,0.4-0.8,0.5-1.2c0.1-0.4,0.1-0.9-0.1-1.4l-0.1-0.3l0.7-0.1l0.1,0.3
			c0.2,0.6,0.2,1.3,0.1,1.9c-0.1,0.6-0.4,1.1-0.8,1.6c0.2,0.4,0.3,0.9,0.4,1.3c0.1,0.5,0.1,0.9,0,1.3c-0.1,0.4-0.2,0.8-0.4,1.2
			c-0.2,0.4-0.5,0.7-0.8,1c-0.5,0.4-1,0.7-1.6,0.9c-0.6,0.2-1.3,0.1-2-0.1c-0.7-0.2-1.5-0.6-2.4-1.3c-0.9-0.6-1.8-1.5-2.8-2.6
			c-1.4-1.6-2.5-3-3.3-4.2c-0.8-1.2-1.4-2.3-1.8-3.2c-0.4-0.9-0.6-1.7-0.5-2.2c0-0.6,0.2-1,0.5-1.3c0.2-0.2,0.4-0.2,0.7-0.2
			c0.3,0,0.6,0.3,1,0.7c0.3,0.3,0.6,0.7,0.9,1.2s0.6,1,1,1.5c0.3,0.6,0.7,1.1,1,1.8c0.3,0.6,0.7,1.2,1,1.9c0.3,0.6,0.6,1.2,0.9,1.9
			C160.5,180,160.8,180.6,161,181.1z M155,171.9c-0.1-0.1-0.2-0.2-0.3-0.3c-0.1-0.1-0.2,0-0.3,0c-0.1,0.1-0.1,0.2,0.1,0.5
			c0.1,0.3,0.3,0.6,0.5,1c0.2,0.4,0.5,0.9,0.9,1.4c0.4,0.5,0.7,1,1.1,1.6c0.4,0.6,0.8,1.1,1.3,1.7c0.5,0.6,0.9,1.1,1.3,1.6
			c-0.4-0.7-0.7-1.4-1.1-2.2c-0.4-0.7-0.8-1.4-1.2-2.1c-0.4-0.7-0.8-1.3-1.2-1.8C155.7,172.8,155.3,172.3,155,171.9z M162.2,179
			c0.3,0.4,0.7,0.7,1.1,0.9c0.4,0.2,0.8,0.4,1.2,0.5c0.4,0.1,0.8,0.1,1.2,0c0.4-0.1,0.8-0.2,1.1-0.3c-0.1-0.2-0.3-0.4-0.4-0.6
			c-0.2-0.2-0.3-0.4-0.5-0.6c-0.4-0.5-0.8-0.9-1.2-1.2c-0.4-0.3-0.8-0.6-1.1-0.7s-0.7-0.2-1-0.3c-0.3,0-0.5,0.1-0.7,0.2
			c-0.2,0.2-0.3,0.5-0.3,0.9C161.6,178.2,161.8,178.6,162.2,179z"/>
		<path style="fill:#231F20;" d="M174.3,176.1c0.2-0.2,0.4-0.5,0.5-0.9c0.1-0.3,0.1-0.7,0.1-1.2c0-0.5-0.1-1-0.3-1.6
			c-0.1-0.6-0.4-1.3-0.7-2.1l-0.1-0.3l0.7-0.1l0.1,0.3c0.4,1,0.6,1.9,0.8,2.7c0.2,0.8,0.3,1.5,0.3,2.1c0,0.6-0.1,1.2-0.2,1.6
			s-0.4,0.8-0.7,1.1c-0.4,0.4-0.8,0.7-1.3,0.9c-0.5,0.2-1,0.2-1.5,0.2c-0.5-0.1-1-0.2-1.5-0.5c-0.5-0.2-1-0.6-1.4-1
			c-0.7-0.6-1.2-1.3-1.6-2.1s-0.6-1.4-0.7-2.1c-0.1-0.7-0.1-1.4,0.1-2c0.2-0.6,0.4-1.1,0.8-1.6c0.4-0.4,0.8-0.7,1.3-0.7
			c0.4,0,0.8,0.1,1.2,0.4c0.3,0.3,0.5,0.7,0.7,1.1c0.1,0.5,0.2,1,0.1,1.5c0,0.6-0.1,1.2-0.2,1.9c-0.1,0.7-0.3,1.4-0.4,2.1
			c0.4,0.3,0.8,0.5,1.1,0.6c0.4,0.1,0.7,0.2,1.1,0.2c0.4,0,0.7,0,1-0.2C173.8,176.6,174.1,176.4,174.3,176.1z M169.3,170.8
			c-0.3-0.2-0.5-0.4-0.8-0.4c-0.3,0-0.5,0.1-0.7,0.3c-0.2,0.2-0.3,0.4-0.3,0.7c-0.1,0.3,0,0.6,0.1,1c0.1,0.4,0.3,0.8,0.6,1.3
			c0.3,0.5,0.8,1,1.3,1.5l0.2,0.2c0.1-0.3,0.2-0.7,0.2-1.2c0.1-0.4,0.1-0.9,0.1-1.3c0-0.4-0.1-0.9-0.2-1.3
			C169.7,171.4,169.6,171.1,169.3,170.8z"/>
		<path style="fill:#231F20;" d="M179.1,170.4c0.1-0.1,0.1-0.3,0.1-0.6c0-0.3-0.1-0.6-0.2-1.1c-0.1-0.4-0.3-0.9-0.5-1.4
			c-0.2-0.5-0.4-1.1-0.7-1.6l-0.1-0.3l0.7-0.2l0.1,0.3c0.4,0.9,0.8,1.8,1.1,2.5c0.3,0.7,0.5,1.3,0.6,1.8c0.1,0.5,0.2,0.9,0.2,1.3
			c0,0.3-0.1,0.6-0.3,0.9c-0.2,0.3-0.6,0.5-0.9,0.5c-0.4,0.1-0.9,0-1.5-0.3c-0.6-0.2-1.3-0.6-2.1-1.2c-0.8-0.6-1.8-1.3-3-2.2
			c-1.6-1.3-3-2.5-4-3.6c-1.1-1.1-1.9-2-2.4-2.9c-0.6-0.8-0.9-1.6-1-2.2c-0.1-0.6,0-1.1,0.3-1.4c0.2-0.2,0.4-0.3,0.7-0.3
			c0.3,0,0.6,0.2,1.1,0.5c0.3,0.3,0.7,0.6,1.1,1c0.4,0.4,0.8,0.9,1.2,1.4s0.9,1,1.3,1.6c0.4,0.6,0.9,1.1,1.3,1.7
			c0.4,0.6,0.8,1.1,1.2,1.7c0.4,0.6,0.8,1.1,1.1,1.6c0.9,0.6,1.6,1.2,2.2,1.5s1,0.7,1.4,0.8c0.4,0.2,0.6,0.3,0.8,0.3
			C178.8,170.6,179,170.5,179.1,170.4z M166.7,159.9c-0.1-0.1-0.3-0.2-0.4-0.2s-0.2,0-0.3,0.1c-0.1,0.1,0,0.2,0.1,0.5
			c0.2,0.2,0.4,0.6,0.7,0.9c0.3,0.4,0.7,0.8,1.1,1.2c0.4,0.4,0.9,0.9,1.4,1.4c0.5,0.5,1,1,1.5,1.4c0.5,0.5,1.1,0.9,1.6,1.4
			c-0.5-0.7-1-1.3-1.5-2c-0.5-0.7-1-1.3-1.5-1.9c-0.5-0.6-1-1.1-1.5-1.6C167.6,160.6,167.1,160.2,166.7,159.9z"/>
		<path style="fill:#231F20;" d="M182.8,165.5c0.1-0.1,0.1-0.3,0.1-0.6c0-0.3-0.1-0.6-0.3-1c-0.2-0.4-0.3-0.9-0.6-1.4
			c-0.2-0.5-0.5-1-0.8-1.6l-0.1-0.3l0.6-0.2l0.1,0.3c0.5,0.9,0.9,1.7,1.2,2.4s0.6,1.3,0.7,1.8c0.2,0.5,0.2,0.9,0.2,1.3
			c0,0.3-0.1,0.6-0.3,0.9c-0.2,0.3-0.5,0.5-0.9,0.6c-0.4,0.1-0.9,0-1.5-0.2c-0.6-0.2-1.3-0.6-2.2-1.1c-0.9-0.5-1.9-1.2-3.1-2.1
			c-1.7-1.2-3.1-2.4-4.2-3.4c-1.1-1-2-1.9-2.6-2.8s-1-1.5-1.1-2.1c-0.1-0.6-0.1-1.1,0.2-1.4c0.2-0.2,0.4-0.3,0.7-0.3
			c0.3,0,0.6,0.1,1.1,0.5c0.4,0.3,0.7,0.6,1.2,1c0.4,0.4,0.8,0.8,1.3,1.3s0.9,1,1.4,1.5c0.5,0.5,0.9,1.1,1.4,1.6
			c0.4,0.5,0.9,1.1,1.3,1.6c0.4,0.5,0.8,1,1.2,1.5c0.9,0.6,1.7,1.1,2.3,1.4c0.6,0.4,1.1,0.6,1.5,0.8c0.4,0.2,0.7,0.2,0.9,0.2
			S182.7,165.7,182.8,165.5z M169.9,155.7c-0.1-0.1-0.3-0.2-0.4-0.2c-0.1,0-0.2,0-0.3,0.1c-0.1,0.1,0,0.2,0.2,0.5
			c0.2,0.2,0.4,0.5,0.7,0.9c0.3,0.3,0.7,0.7,1.2,1.2c0.5,0.4,0.9,0.9,1.5,1.3c0.5,0.5,1.1,0.9,1.6,1.4c0.6,0.5,1.1,0.9,1.6,1.3
			c-0.5-0.6-1-1.3-1.6-1.9c-0.6-0.6-1.1-1.2-1.6-1.8c-0.5-0.6-1.1-1.1-1.6-1.5C170.8,156.4,170.3,156,169.9,155.7z"/>
		<path style="fill:#231F20;" d="M187,159.7c0.2-0.3,0.3-0.6,0.3-0.9c0-0.4,0-0.8-0.1-1.2c-0.1-0.5-0.3-1-0.5-1.6s-0.6-1.2-1-1.9
			l-0.2-0.3l0.6-0.2l0.2,0.3c0.5,0.9,1,1.7,1.3,2.5c0.3,0.8,0.5,1.4,0.6,2c0.1,0.6,0.1,1.1,0.1,1.6c-0.1,0.5-0.2,0.9-0.4,1.2
			c-0.3,0.5-0.7,0.8-1.1,1.1c-0.4,0.2-0.9,0.4-1.4,0.4s-1,0-1.6-0.2c-0.5-0.2-1.1-0.4-1.6-0.7c-0.8-0.5-1.5-1.1-2-1.7
			c-0.5-0.6-0.9-1.3-1.1-2s-0.3-1.3-0.3-1.9s0.2-1.2,0.5-1.7c0.3-0.5,0.7-0.8,1.1-0.9c0.4-0.1,0.8,0,1.2,0.2c0.4,0.2,0.7,0.6,0.9,1
			c0.2,0.4,0.3,0.9,0.4,1.5c0.1,0.6,0.1,1.2,0.1,1.9c0,0.7,0,1.4,0,2.1c0.4,0.2,0.8,0.3,1.2,0.4c0.4,0.1,0.8,0.1,1.1,0
			c0.3,0,0.7-0.2,0.9-0.3C186.6,160.3,186.8,160,187,159.7z M181.1,155.4c-0.3-0.2-0.6-0.3-0.9-0.2s-0.5,0.2-0.6,0.4
			c-0.1,0.2-0.2,0.4-0.2,0.7c0,0.3,0.1,0.6,0.3,1c0.2,0.4,0.5,0.8,0.9,1.2s0.9,0.8,1.6,1.3l0.3,0.2c0-0.3,0-0.7,0-1.2
			c0-0.4-0.1-0.9-0.2-1.3c-0.1-0.4-0.2-0.8-0.4-1.2C181.7,155.9,181.4,155.6,181.1,155.4z"/>
		<path style="fill:#231F20;" d="M190.5,147.6c0.5,0.3,1,0.6,1.4,1.1c0.4,0.4,0.7,0.9,0.9,1.4c0.2,0.5,0.3,1.1,0.3,1.6
			c0,0.6-0.2,1.1-0.5,1.7c-0.2,0.4-0.5,0.8-0.8,1c-0.3,0.3-0.6,0.4-1,0.5c-0.4,0.1-0.7,0.1-1.1,0.1c-0.4,0-0.7-0.1-1-0.3
			c-0.3-0.2-0.6-0.4-0.8-0.7c-0.2-0.3-0.3-0.6-0.4-0.9s-0.1-0.6-0.1-0.9c0-0.3,0.1-0.6,0.3-0.9c0.1-0.2,0.2-0.4,0.4-0.5l0.3,0.2
			c-0.1,0.2-0.2,0.5-0.2,0.8c0,0.3,0,0.6,0.1,0.9c0.1,0.3,0.2,0.5,0.4,0.8c0.2,0.2,0.4,0.4,0.7,0.6c0.5,0.3,1,0.3,1.5,0.1
			c0.5-0.2,0.9-0.6,1.2-1.2c0.2-0.3,0.3-0.6,0.3-0.9c0-0.3,0-0.6-0.1-0.9s-0.3-0.6-0.5-0.8s-0.5-0.5-0.9-0.7c-0.3-0.2-0.7-0.3-1-0.3
			c-0.4,0-0.7,0-1.1,0.1c-0.4,0.1-0.7,0.2-1.1,0.3c-0.4,0.2-0.7,0.3-1.1,0.5s-0.7,0.3-1,0.5c-0.3,0.2-0.7,0.3-1,0.4l1.9,2.6
			l-0.6,0.3l-1.9-2.6c-0.4,0.1-0.8,0.2-1.1,0.2c-0.3,0-0.6-0.1-1-0.3c-0.2-0.1-0.3-0.2-0.5-0.4c-0.1-0.2-0.2-0.3-0.3-0.5
			c-0.1-0.2-0.1-0.4-0.1-0.5c0-0.2,0.1-0.4,0.1-0.5c0.2-0.3,0.4-0.5,0.6-0.5c0.2-0.1,0.5,0,0.7,0.1c0.1,0.1,0.2,0.1,0.3,0.2
			s0.2,0.2,0.3,0.3c0.1,0.1,0.2,0.2,0.3,0.3c0.1,0.1,0.2,0.2,0.2,0.2c0.3-0.1,0.6-0.3,1-0.5c0.3-0.2,0.7-0.5,1.1-0.7
			c0.4-0.3,0.8-0.5,1.2-0.7s0.8-0.4,1.2-0.5c0.4-0.1,0.8-0.2,1.2-0.2C189.7,147.3,190.1,147.4,190.5,147.6z M181.6,149.6
			c-0.1,0.1-0.1,0.2,0,0.3c0,0.1,0.1,0.2,0.2,0.3c0.1,0.1,0.3,0.1,0.5,0.1c0.2,0,0.4,0,0.7-0.1c-0.1-0.2-0.2-0.3-0.4-0.4
			c-0.1-0.1-0.3-0.2-0.4-0.3c-0.1-0.1-0.2-0.1-0.4-0.1S181.7,149.5,181.6,149.6z"/>
	</g>
</g>
<g>
</g>
<g>
</g>
<g>
</g>
<g>
</g>
<g>
</g>
<g>
</g>
</svg>
