<?xml version="1.0" encoding="utf-8"?>
<!-- Generator: Adobe Illustrator 18.1.0, SVG Export Plug-In . SVG Version: 6.00 Build 0)  -->
<svg version="1.1" id="Layer_1" xmlns="http://www.w3.org/2000/svg" xmlns:xlink="http://www.w3.org/1999/xlink" x="0px" y="0px"
	 viewBox="0 0 208.4 229" enable-background="new 0 0 208.4 229" xml:space="preserve">
<g>
	<circle fill="#939598" cx="94.9" cy="101.6" r="85.6"/>
	<circle fill="none" stroke="#414042" stroke-width="4" stroke-miterlimit="10" cx="94.6" cy="102" r="74.3"/>
	<path fill="#BCBEC0" d="M95.2,80.7C85.1,76.3,74.3,82.9,69,92.2c-7,12.1-16.5,25.1-31.3,28c0,0,4.3,15.7,30.1,25.2
		c0,0-3.5,5.9,2.7,8.2c0,0,5.3,0.8,6.3-4.5c0,0,6.7,1.8,13.7,1.2c-0.9,0.1-1.5-12.2-1.4-13.2c0.4-7.2,3.5-16,7.6-22
		c2.3-3.4,4-7.3,5.1-11.2c1.8-6.2,2.7-17.2-3.5-21.4C97.2,81.8,96.2,81.2,95.2,80.7z"/>
	<path fill="#E6E7E8" d="M52.8,112.8c0,0,9.4,22,36.7,20.3c0,0,0.7-4.2,2.2-8.2c0,0-26.1-1.2-31.9-19.1
		C59.8,105.7,55.5,110.4,52.8,112.8z"/>
	<path fill="#6D6E71" d="M67.7,145.4c0,0-0.9,2.6-0.9,2.8c-0.3,1.8,0.1,3.6,1.6,4.7c1.7,1.3,3.8,1.5,5.7,0.7
		c0.7-0.3,1.4-0.8,1.9-1.5c0.3-0.4,0.5-0.8,0.6-1.3c0-0.2,0.4-1.6,0.2-1.6C76.9,149.1,69.8,147,67.7,145.4z"/>
	<path fill="#A7A9AC" d="M94.4,73.1c10.1-4.4,20.8,2.1,26.2,11.5c7,12.1,16.5,25.1,31.3,28c0,0-4.3,15.7-30.1,25.2
		c0,0,3.5,5.9-2.7,8.2c0,0-5.3,0.8-6.3-4.5c0,0-6.7,1.8-13.7,1.2c0.9,0.1,1.5-12.2,1.4-13.2c-0.4-7.2-3.5-16-7.6-22
		c-2.3-3.4-4-7.3-5.1-11.2C86,90,85.1,79.1,91.3,74.9C92.3,74.2,93.3,73.6,94.4,73.1z"/>
	<path fill="#E6E7E8" d="M136.7,105.2c0,0-9.4,22-36.7,20.3c0,0-0.7-4.2-2.2-8.2c0,0,26.1-1.2,31.9-19.1
		C129.7,98.1,134,102.8,136.7,105.2z"/>
	<path fill="#58595B" d="M121.8,137.8c0,0,0.9,2.6,0.9,2.8c0.3,1.8-0.1,3.6-1.6,4.7c-1.7,1.3-3.8,1.5-5.7,0.7
		c-0.7-0.3-1.4-0.8-1.9-1.5c-0.3-0.4-0.5-0.8-0.6-1.3c0-0.2-0.4-1.6-0.2-1.6C112.6,141.4,119.8,139.4,121.8,137.8z"/>
	<path fill="#FFFFFF" d="M95.9,73.7c0.6,0.5,1.2,0.9,1.7,1.5c1.1,1.2,1,2.3-0.2,3.8c-1.8,2.1-6.7,2.9-9,1.4c-0.5-0.3-1-0.9-1.4-1.3
		c0-0.1,0-0.2,0.1-0.3c-2.8,0.4-5.5,1-8.3,1.3c-5.5,0.5-11.1,0.5-16.5-1.3c-2.6-0.9-5.1-2.1-6.8-4.4c-2.4-3.2-2.3-6.5-0.7-9.9
		c1.7-3.6,4.5-6.2,7.8-8.2c3.2-2,6.6-2,10-0.3c4.2,2.1,7.3,5.5,9.8,9.3c2,3,3.7,6.3,5.6,9.4c0.1,0.2,0.3,0.5,0.5,0.7
		c1.8-1.3,3.9-1.5,6-1.5c0.2,0,0.5-0.1,0.7-0.2c3-2.9,5.9-5.8,8.8-8.8c2-2.1,3.6-4.5,4.9-7.1c0.8-1.6,1.2-3.3,1.1-5
		c-0.2-1.5-1-2.7-2.3-3.6c-1.8-1.2-3.8-1.9-5.9-1c-1,0.4-2,1.2-2.8,2c-2.1,2.4-3.2,5.4-4.1,8.4c-1.2,4-1.9,8.1-2.4,12.3
		c-0.1,0.8-0.2,1.7-0.6,2.5c-0.1-0.2-0.1-0.4-0.2-0.6c-0.4-3.1-0.9-6.3-1.1-9.4c-0.1-2.3,0-4.6,0.3-6.8c0.3-2.3,0.8-4.7,1.4-6.9
		c1-3.2,3-5.8,6.2-7c1.7-0.6,3.6-0.6,5.4-0.6c2.4-0.1,4.8,0.5,7,1.4c2.8,1.1,5.2,2.8,6.3,5.6c0.9,2.4,0.8,4.9-0.2,7.4
		c-1.5,3.5-4,6.2-6.8,8.7c-4.1,3.6-8.9,6.2-13.8,8.7C96.2,73.6,96,73.7,95.9,73.7z M66.6,61c-0.4,0.1-0.7,0.1-1,0.3
		c-1.8,0.8-3,2.2-3.7,4c-0.7,1.7-0.6,3.5,0.5,5c1.6,2.3,4,3.4,6.5,4.4c5.5,2.1,11.2,3,17,3.7c0.6,0.1,0.9-0.1,1-0.8
		c0.1-0.5,0.2-1,0.5-1.3c0.6-0.6,0.3-1.1-0.2-1.5c-1.4-1.5-2.9-2.9-4.3-4.4c-3-3.1-6.3-5.9-10.2-7.9C70.8,61.5,68.8,60.9,66.6,61z"
		/>
	<path fill="#FFFFFF" d="M157,69.8c0,0.2,0,0.4-0.1,0.5c-2,3.6-4.4,6.9-7.8,9.4c-4.7,3.4-9.6,2.4-13.5-1.4c-2.5-2.4-4.7-5.1-7.7-6.9
		c-2.8-1.8-5.8-3-9.1-3.6c-2.6-0.5-5.2-0.5-7.9-0.4c0.4-0.2,0.7-0.5,1.1-0.6c3.1-1,6.3-1.7,9.6-1.6c5.1,0.2,9.8,1.7,13.7,5.2
		c1.2,1.1,2.4,2.3,3.6,3.3c3.1,2.5,6.7,3,10.4,1.7c2.3-0.8,4.3-2.4,6-4.2c0.5-0.5,0.9-1.1,1.4-1.6C156.9,69.8,156.9,69.8,157,69.8z"
		/>
	<path fill="#FFFFFF" d="M33.3,99.6c2.4,1.5,4.7,2.6,7.4,3c3.8,0.5,7.2-0.3,9.7-3.3c1.2-1.4,2.1-3,3-4.6c2.3-4.4,5.7-7.6,10.2-9.5
		c3.3-1.5,6.8-2.3,10.4-2.2c0.7,0,1.5,0,2.2,0c0,0.1,0,0.2,0,0.3c-1.1,0.3-2.3,0.7-3.4,1c-3.1,0.9-5.8,2.6-8.3,4.7
		c-3.4,2.9-5.7,6.5-7.4,10.5c-1.2,2.7-2.7,5.1-5.3,6.7c-2.5,1.5-5.2,1.4-7.8,0.6c-3.6-1.1-6.7-3.2-9.4-5.7c-0.4-0.4-0.8-0.7-1.1-1.1
		C33.2,99.9,33.3,99.8,33.3,99.6z"/>
	<path id="SVGID_x5F_1_x5F_" fill="none" d="M47.2,202.5c0,0,123.4,45.3,160.2-86"/>
	<text>	<textPath  xlink:href="#SVGID_x5F_1_x5F_" startOffset="11.255%">
<tspan  fill="#231F20" font-family="'Rochester-Regular'" font-size="27">wedding belles</tspan>	</textPath>
</text>
</g>
<path fill="#A59677" d="M1140.6,19.5c38.4-16.7,79,8,99.6,43.7c26.6,46,62.7,95.4,119,106.4c0,0-16.3,59.7-114.4,95.8
	c0,0,13.3,22.4-10.3,31.2c0,0-20.1,3-23.9-17.1c0,0-25.5,6.8-52.1,4.6c3.4,0.4,5.7-46.4,5.3-50.2c-1.5-27.4-13.3-60.8-28.9-83.6
	c-8.7-12.9-15.2-27.7-19.4-42.6c-6.8-23.9-10.3-65.4,13.3-81.3C1132.6,23.6,1136.4,21.4,1140.6,19.5z"/>
<path fill="#FFF3BB" d="M1301.3,141.5c0,0-35.7,83.6-139.5,77.1c0,0-2.7-16-8.4-31.2c0,0,99.2-4.6,121.2-72.6
	C1274.7,114.5,1291.1,132.3,1301.3,141.5z"/>
<path fill="#FFFFFF" d="M1359.5,22.1c0,0.8,0,1.5-0.4,1.9c-7.6,13.7-16.7,26.2-29.6,35.7c-17.9,12.9-36.5,9.1-51.3-5.3
	c-9.5-9.1-17.9-19.4-29.3-26.2c-10.6-6.8-22-11.4-34.6-13.7c-9.9-1.9-19.8-1.9-30-1.5c1.5-0.8,2.7-1.9,4.2-2.3
	c11.8-3.8,23.9-6.5,36.5-6.1c19.4,0.8,37.2,6.5,52.1,19.8c4.6,4.2,9.1,8.7,13.7,12.5c11.8,9.5,25.5,11.4,39.5,6.5
	c8.7-3,16.3-9.1,22.8-16c1.9-1.9,3.4-4.2,5.3-6.1C1359.1,22.1,1359.1,22.1,1359.5,22.1z"/>
</svg>
